EBGaramondVF-xtransparentMin.ufo
<glyph name="exclam" format="1">
  <advance width="184"/>
  <unicode hex="0021"/>
  <outline>
    <contour>
      <point x="100" y="205"/>
      <point x="106" y="222"/>
      <point x="108" y="244" type="curve" smooth="yes"/>
      <point x="120" y="357"/>
      <point x="138" y="531"/>
      <point x="138" y="594" type="curve" smooth="yes"/>
      <point x="138" y="623"/>
      <point x="120" y="649"/>
      <point x="93" y="649" type="curve" smooth="yes"/>
      <point x="66" y="649"/>
      <point x="46" y="623"/>
      <point x="46" y="594" type="curve" smooth="yes"/>
      <point x="46" y="531"/>
      <point x="60" y="358"/>
      <point x="72" y="244" type="curve" smooth="yes"/>
      <point x="75" y="215"/>
      <point x="80" y="205"/>
      <point x="90" y="205" type="curve" smooth="yes"/>
    </contour>
    <contour>
      <point x="125" y="-14"/>
      <point x="152" y="13"/>
      <point x="152" y="46" type="curve" smooth="yes"/>
      <point x="152" y="79"/>
      <point x="125" y="106"/>
      <point x="92" y="106" type="curve" smooth="yes"/>
      <point x="59" y="106"/>
      <point x="32" y="79"/>
      <point x="32" y="46" type="curve" smooth="yes"/>
      <point x="32" y="13"/>
      <point x="59" y="-14"/>
      <point x="92" y="-14" type="curve" smooth="yes"/>
    </contour>
  </outline>
</glyph>
<glyph name="numbersign" format="1">
  <advance width="232"/>
  <unicode hex="0023"/>
  <outline>
    <contour>
      <point x="38" y="-79"/>
      <point x="59" y="-77"/>
      <point x="60" y="-64" type="curve" smooth="yes"/>
      <point x="79" y="116" type="line"/>
      <point x="108" y="120" type="line"/>
      <point x="89" y="-53" type="line"/>
      <point x="89" y="-56" type="line" smooth="yes"/>
      <point x="89" y="-62"/>
      <point x="91" y="-68"/>
      <point x="94" y="-68" type="curve" smooth="yes"/>
      <point x="100" y="-68"/>
      <point x="130" y="-66"/>
      <point x="131" y="-53" type="curve" smooth="yes"/>
      <point x="150" y="123" type="line"/>
      <point x="175" y="126" type="line" smooth="yes"/>
      <point x="185" y="127"/>
      <point x="189" y="164"/>
      <point x="189" y="174" type="curve" smooth="yes"/>
      <point x="189" y="181"/>
      <point x="186" y="186"/>
      <point x="183" y="186" type="curve"/>
      <point x="156" y="183" type="line"/>
      <point x="171" y="321" type="line"/>
      <point x="196" y="324" type="line" smooth="yes"/>
      <point x="206" y="325"/>
      <point x="210" y="363"/>
      <point x="210" y="373" type="curve" smooth="yes"/>
      <point x="210" y="380"/>
      <point x="207" y="384"/>
      <point x="204" y="384" type="curve"/>
      <point x="178" y="381" type="line"/>
      <point x="196" y="553" type="line"/>
      <point x="196" y="555"/>
      <point x="197" y="556"/>
      <point x="197" y="558" type="curve" smooth="yes"/>
      <point x="197" y="564"/>
      <point x="174" y="570"/>
      <point x="172" y="570" type="curve" smooth="yes"/>
      <point x="166" y="570"/>
      <point x="157" y="567"/>
      <point x="155" y="553" type="curve" smooth="yes"/>
      <point x="136" y="377" type="line"/>
      <point x="107" y="374" type="line"/>
      <point x="125" y="542" type="line"/>
      <point x="125" y="544"/>
      <point x="126" y="545"/>
      <point x="126" y="547" type="curve" smooth="yes"/>
      <point x="126" y="553"/>
      <point x="119" y="559"/>
      <point x="117" y="559" type="curve" smooth="yes"/>
      <point x="111" y="559"/>
      <point x="89" y="556"/>
      <point x="88" y="542" type="curve" smooth="yes"/>
      <point x="69" y="371" type="line"/>
      <point x="39" y="368" type="line" smooth="yes"/>
      <point x="30" y="367"/>
      <point x="29" y="330"/>
      <point x="29" y="320" type="curve" smooth="yes"/>
      <point x="29" y="313"/>
      <point x="32" y="308"/>
      <point x="35" y="308" type="curve"/>
      <point x="63" y="311" type="line"/>
      <point x="48" y="173" type="line"/>
      <point x="19" y="170" type="line" smooth="yes"/>
      <point x="9" y="169"/>
      <point x="8" y="132"/>
      <point x="8" y="122" type="curve" smooth="yes"/>
      <point x="8" y="115"/>
      <point x="11" y="110"/>
      <point x="14" y="110" type="curve"/>
      <point x="42" y="113" type="line"/>
      <point x="22" y="-64" type="line"/>
      <point x="22" y="-67" type="line" smooth="yes"/>
      <point x="22" y="-73"/>
      <point x="29" y="-79"/>
      <point x="32" y="-79" type="curve" smooth="yes"/>
    </contour>
    <contour>
      <point x="101" y="315" type="line"/>
      <point x="129" y="318" type="line"/>
      <point x="115" y="180" type="line"/>
      <point x="86" y="177" type="line"/>
    </contour>
  </outline>
</glyph>
<glyph name="asterisk" format="1">
  <advance width="177"/>
  <unicode hex="002A"/>
  <outline>
    <contour>
      <point x="96" y="372" type="curve" smooth="yes"/>
      <point x="104" y="372"/>
      <point x="113" y="381"/>
      <point x="113" y="394" type="curve" smooth="yes"/>
      <point x="112" y="429"/>
      <point x="112" y="459"/>
      <point x="110" y="487" type="curve"/>
      <point x="122" y="476"/>
      <point x="131" y="461"/>
      <point x="140" y="452" type="curve" smooth="yes"/>
      <point x="144" y="448"/>
      <point x="160" y="452"/>
      <point x="160" y="466" type="curve" smooth="yes"/>
      <point x="160" y="473"/>
      <point x="158" y="481"/>
      <point x="155" y="484" type="curve"/>
      <point x="142" y="502"/>
      <point x="130" y="513"/>
      <point x="118" y="525" type="curve"/>
      <point x="153" y="583" type="line"/>
      <point x="155" y="588"/>
      <point x="157" y="594"/>
      <point x="157" y="600" type="curve" smooth="yes"/>
      <point x="157" y="610"/>
      <point x="148" y="616"/>
      <point x="144" y="616" type="curve" smooth="yes"/>
      <point x="142" y="616"/>
      <point x="141" y="615"/>
      <point x="139" y="612" type="curve"/>
      <point x="126" y="594"/>
      <point x="117" y="576"/>
      <point x="107" y="560" type="curve"/>
      <point x="101" y="652" type="line" smooth="yes"/>
      <point x="100" y="662"/>
      <point x="93" y="670"/>
      <point x="85" y="670" type="curve" smooth="yes"/>
      <point x="76" y="670"/>
      <point x="67" y="663"/>
      <point x="67" y="648" type="curve" smooth="yes"/>
      <point x="68" y="613"/>
      <point x="68" y="583"/>
      <point x="70" y="555" type="curve"/>
      <point x="58" y="566"/>
      <point x="46" y="576"/>
      <point x="32" y="590" type="curve" smooth="yes"/>
      <point x="28" y="593"/>
      <point x="17" y="593"/>
      <point x="17" y="579" type="curve" smooth="yes"/>
      <point x="17" y="572"/>
      <point x="23" y="562"/>
      <point x="26" y="559" type="curve"/>
      <point x="39" y="541"/>
      <point x="50" y="529"/>
      <point x="62" y="517" type="curve"/>
      <point x="27" y="461" type="line" smooth="yes"/>
      <point x="24" y="456"/>
      <point x="22" y="450"/>
      <point x="22" y="444" type="curve" smooth="yes"/>
      <point x="22" y="434"/>
      <point x="30" y="428"/>
      <point x="34" y="428" type="curve" smooth="yes"/>
      <point x="36" y="428"/>
      <point x="37" y="429"/>
      <point x="40" y="434" type="curve" smooth="yes"/>
      <point x="52" y="450"/>
      <point x="63" y="466"/>
      <point x="73" y="482" type="curve"/>
      <point x="79" y="390" type="line" smooth="yes"/>
      <point x="81" y="375"/>
      <point x="91" y="372"/>
    </contour>
  </outline>
</glyph>
<glyph name="plus" format="1">
  <advance width="263"/>
  <unicode hex="002B"/>
  <outline>
    <contour>
      <point x="122" y="126"/>
      <point x="161" y="129"/>
      <point x="161" y="150" type="curve" smooth="yes"/>
      <point x="161" y="211" type="line" smooth="yes"/>
      <point x="161" y="214"/>
      <point x="162" y="215"/>
      <point x="165" y="215" type="curve" smooth="yes"/>
      <point x="210" y="215" type="line" smooth="yes"/>
      <point x="229" y="215"/>
      <point x="241" y="246"/>
      <point x="241" y="263" type="curve" smooth="yes"/>
      <point x="241" y="269"/>
      <point x="235" y="273"/>
      <point x="228" y="273" type="curve" smooth="yes"/>
      <point x="163" y="273" type="line" smooth="yes"/>
      <point x="161" y="273"/>
      <point x="161" y="274"/>
      <point x="161" y="279" type="curve" smooth="yes"/>
      <point x="161" y="349" type="line" smooth="yes"/>
      <point x="161" y="356"/>
      <point x="154" y="362"/>
      <point x="147" y="362" type="curve" smooth="yes"/>
      <point x="141" y="362"/>
      <point x="101" y="353"/>
      <point x="101" y="331" type="curve" smooth="yes"/>
      <point x="101" y="281" type="line" smooth="yes"/>
      <point x="101" y="275"/>
      <point x="100" y="273"/>
      <point x="94" y="273" type="curve" smooth="yes"/>
      <point x="46" y="273" type="line" smooth="yes"/>
      <point x="28" y="273"/>
      <point x="22" y="236"/>
      <point x="22" y="227" type="curve" smooth="yes"/>
      <point x="22" y="221"/>
      <point x="29" y="215"/>
      <point x="36" y="215" type="curve" smooth="yes"/>
      <point x="97" y="215" type="line" smooth="yes"/>
      <point x="100" y="215"/>
      <point x="101" y="213"/>
      <point x="101" y="210" type="curve" smooth="yes"/>
      <point x="101" y="140" type="line" smooth="yes"/>
      <point x="101" y="133"/>
      <point x="107" y="126"/>
      <point x="113" y="126" type="curve" smooth="yes"/>
    </contour>
  </outline>
</glyph>
<glyph name="zero" format="1">
  <advance width="282"/>
  <unicode hex="0030"/>
  <outline>
    <contour>
      <point x="138" y="-14" type="curve" smooth="yes"/>
      <point x="228" y="-14"/>
      <point x="265" y="151"/>
      <point x="265" y="316" type="curve" smooth="yes"/>
      <point x="265" y="476"/>
      <point x="226" y="630"/>
      <point x="144" y="630" type="curve" smooth="yes"/>
      <point x="54" y="630"/>
      <point x="17" y="469"/>
      <point x="17" y="302" type="curve" smooth="yes"/>
      <point x="17" y="139"/>
      <point x="56" y="-14"/>
    </contour>
    <contour>
      <point x="145" y="12" type="curve" smooth="yes"/>
      <point x="115" y="12"/>
      <point x="100" y="150"/>
      <point x="100" y="320" type="curve" smooth="yes"/>
      <point x="100" y="490"/>
      <point x="110" y="602"/>
      <point x="136" y="602" type="curve" smooth="yes"/>
      <point x="166" y="602"/>
      <point x="182" y="468"/>
      <point x="182" y="298" type="curve" smooth="yes"/>
      <point x="182" y="128"/>
      <point x="171" y="12"/>
    </contour>
  </outline>
</glyph>
<glyph name="one" format="1">
  <advance width="282"/>
  <unicode hex="0031"/>
  <outline>
    <contour>
      <point x="70" y="-3"/>
      <point x="110" y="2"/>
      <point x="134" y="2" type="curve" smooth="yes"/>
      <point x="157" y="2"/>
      <point x="196" y="-3"/>
      <point x="221" y="-3" type="curve" smooth="yes"/>
      <point x="225" y="-3"/>
      <point x="227" y="2"/>
      <point x="227" y="8" type="curve" smooth="yes"/>
      <point x="227" y="14"/>
      <point x="224" y="19"/>
      <point x="220" y="21" type="curve" smooth="yes"/>
      <point x="183" y="39"/>
      <point x="174" y="46"/>
      <point x="174" y="97" type="curve" smooth="yes"/>
      <point x="174" y="557" type="line" smooth="yes"/>
      <point x="174" y="585"/>
      <point x="175" y="608"/>
      <point x="175" y="628" type="curve" smooth="yes"/>
      <point x="175" y="633"/>
      <point x="170" y="637"/>
      <point x="165" y="637" type="curve" smooth="yes"/>
      <point x="160" y="637"/>
      <point x="156" y="635"/>
      <point x="151" y="626" type="curve" smooth="yes"/>
      <point x="131" y="590"/>
      <point x="94" y="580"/>
      <point x="62" y="574" type="curve" smooth="yes"/>
      <point x="51" y="572"/>
      <point x="46" y="565"/>
      <point x="46" y="556" type="curve" smooth="yes"/>
      <point x="46" y="545"/>
      <point x="52" y="540"/>
      <point x="62" y="538" type="curve" smooth="yes"/>
      <point x="87" y="533"/>
      <point x="94" y="526"/>
      <point x="94" y="491" type="curve" smooth="yes"/>
      <point x="94" y="109" type="line" smooth="yes"/>
      <point x="94" y="50"/>
      <point x="78" y="43"/>
      <point x="46" y="22" type="curve" smooth="yes"/>
      <point x="43" y="20"/>
      <point x="40" y="14"/>
      <point x="40" y="9" type="curve" smooth="yes"/>
      <point x="40" y="3"/>
      <point x="42" y="-3"/>
      <point x="46" y="-3" type="curve" smooth="yes"/>
    </contour>
  </outline>
</glyph>
<glyph name="two" format="1">
  <advance width="282"/>
  <unicode hex="0032"/>
  <outline>
    <contour>
      <point x="230" y="-3" type="curve" smooth="yes"/>
      <point x="233" y="-3"/>
      <point x="238" y="0"/>
      <point x="240" y="21" type="curve" smooth="yes"/>
      <point x="245" y="71"/>
      <point x="253" y="112"/>
      <point x="253" y="122" type="curve" smooth="yes"/>
      <point x="253" y="127"/>
      <point x="251" y="134"/>
      <point x="242" y="134" type="curve" smooth="yes"/>
      <point x="236" y="134"/>
      <point x="230" y="129"/>
      <point x="224" y="111" type="curve" smooth="yes"/>
      <point x="214" y="80"/>
      <point x="203" y="67"/>
      <point x="183" y="64" type="curve" smooth="yes"/>
      <point x="170" y="62"/>
      <point x="131" y="61"/>
      <point x="114" y="61" type="curve" smooth="yes"/>
      <point x="98" y="61"/>
      <point x="98" y="61"/>
      <point x="88" y="64" type="curve" smooth="yes"/>
      <point x="85" y="65"/>
      <point x="82" y="66"/>
      <point x="82" y="71" type="curve"/>
      <point x="100" y="114"/>
      <point x="121" y="157"/>
      <point x="138" y="199" type="curve" smooth="yes"/>
      <point x="159" y="250"/>
      <point x="227" y="384"/>
      <point x="227" y="481" type="curve" smooth="yes"/>
      <point x="227" y="567"/>
      <point x="196" y="630"/>
      <point x="129" y="630" type="curve" smooth="yes"/>
      <point x="60" y="630"/>
      <point x="31" y="518"/>
      <point x="31" y="487" type="curve" smooth="yes"/>
      <point x="31" y="463"/>
      <point x="41" y="460"/>
      <point x="43" y="460" type="curve" smooth="yes"/>
      <point x="47" y="460"/>
      <point x="52" y="473"/>
      <point x="55" y="485" type="curve" smooth="yes"/>
      <point x="67" y="533"/>
      <point x="85" y="566"/>
      <point x="106" y="566" type="curve" smooth="yes"/>
      <point x="128" y="566"/>
      <point x="148" y="528"/>
      <point x="148" y="452" type="curve" smooth="yes"/>
      <point x="148" y="364"/>
      <point x="127" y="274"/>
      <point x="101" y="205" type="curve" smooth="yes"/>
      <point x="34" y="28" type="line" smooth="yes"/>
      <point x="32" y="22"/>
      <point x="30" y="21"/>
      <point x="30" y="15" type="curve" smooth="yes"/>
      <point x="30" y="9"/>
      <point x="37" y="-2"/>
      <point x="39" y="-2" type="curve" smooth="yes"/>
      <point x="48" y="-2"/>
      <point x="149" y="3"/>
      <point x="171" y="3" type="curve" smooth="yes"/>
      <point x="193" y="3"/>
      <point x="221" y="-3"/>
    </contour>
  </outline>
</glyph>
<glyph name="three" format="1">
  <advance width="282"/>
  <unicode hex="0033"/>
  <outline>
    <contour>
      <point x="165" y="-38"/>
      <point x="244" y="53"/>
      <point x="244" y="203" type="curve" smooth="yes"/>
      <point x="244" y="288"/>
      <point x="205" y="360"/>
      <point x="159" y="360" type="curve" smooth="yes"/>
      <point x="156" y="360"/>
      <point x="156" y="364"/>
      <point x="159" y="366" type="curve"/>
      <point x="201" y="411"/>
      <point x="217" y="468"/>
      <point x="217" y="516" type="curve" smooth="yes"/>
      <point x="217" y="584"/>
      <point x="182" y="630"/>
      <point x="138" y="630" type="curve" smooth="yes"/>
      <point x="63" y="630"/>
      <point x="37" y="542"/>
      <point x="37" y="500" type="curve" smooth="yes"/>
      <point x="37" y="490"/>
      <point x="46" y="481"/>
      <point x="50" y="481" type="curve" smooth="yes"/>
      <point x="59" y="481"/>
      <point x="68" y="570"/>
      <point x="104" y="570" type="curve" smooth="yes"/>
      <point x="125" y="570"/>
      <point x="139" y="521"/>
      <point x="139" y="466" type="curve" smooth="yes"/>
      <point x="139" y="395"/>
      <point x="101" y="342"/>
      <point x="92" y="332" type="curve" smooth="yes"/>
      <point x="87" y="326"/>
      <point x="81" y="315"/>
      <point x="81" y="298" type="curve" smooth="yes"/>
      <point x="81" y="291"/>
      <point x="84" y="285"/>
      <point x="87" y="289" type="curve" smooth="yes"/>
      <point x="96" y="301"/>
      <point x="106" y="304"/>
      <point x="111" y="304" type="curve" smooth="yes"/>
      <point x="140" y="304"/>
      <point x="160" y="223"/>
      <point x="160" y="146" type="curve" smooth="yes"/>
      <point x="160" y="63"/>
      <point x="128" y="0"/>
      <point x="99" y="0" type="curve" smooth="yes"/>
      <point x="83" y="0"/>
      <point x="79" y="16"/>
      <point x="69" y="31" type="curve" smooth="yes"/>
      <point x="62" y="41"/>
      <point x="54" y="51"/>
      <point x="46" y="51" type="curve" smooth="yes"/>
      <point x="38" y="51"/>
      <point x="21" y="28"/>
      <point x="21" y="12" type="curve" smooth="yes"/>
      <point x="21" y="-8"/>
      <point x="62" y="-38"/>
      <point x="89" y="-38" type="curve" smooth="yes"/>
    </contour>
  </outline>
</glyph>
<glyph name="four" format="1">
  <advance width="282"/>
  <unicode hex="0034"/>
  <outline>
    <contour>
      <point x="97" y="-3" type="curve" smooth="yes"/>
      <point x="121" y="-3"/>
      <point x="156" y="2"/>
      <point x="178" y="2" type="curve" smooth="yes"/>
      <point x="216" y="2"/>
      <point x="233" y="-5"/>
      <point x="249" y="-5" type="curve" smooth="yes"/>
      <point x="258" y="-5"/>
      <point x="260" y="2"/>
      <point x="260" y="8" type="curve" smooth="yes"/>
      <point x="260" y="14"/>
      <point x="256" y="19"/>
      <point x="252" y="21" type="curve" smooth="yes"/>
      <point x="233" y="31"/>
      <point x="217" y="45"/>
      <point x="217" y="84" type="curve" smooth="yes"/>
      <point x="217" y="178" type="line" smooth="yes"/>
      <point x="217" y="180"/>
      <point x="217" y="182"/>
      <point x="219" y="184" type="curve" smooth="yes"/>
      <point x="220" y="185"/>
      <point x="223" y="186"/>
      <point x="227" y="186" type="curve" smooth="yes"/>
      <point x="232" y="186"/>
      <point x="237" y="185"/>
      <point x="241" y="185" type="curve" smooth="yes"/>
      <point x="242" y="185"/>
      <point x="247" y="207"/>
      <point x="247" y="223" type="curve" smooth="yes"/>
      <point x="247" y="227"/>
      <point x="246" y="231"/>
      <point x="244" y="231" type="curve" smooth="yes"/>
      <point x="241" y="231"/>
      <point x="238" y="230"/>
      <point x="235" y="230" type="curve" smooth="yes"/>
      <point x="230" y="230"/>
      <point x="226" y="230"/>
      <point x="222" y="230" type="curve" smooth="yes"/>
      <point x="220" y="230"/>
      <point x="218" y="233"/>
      <point x="218" y="236" type="curve" smooth="yes"/>
      <point x="218" y="305" type="line" smooth="yes"/>
      <point x="218" y="347"/>
      <point x="218" y="369"/>
      <point x="214" y="369" type="curve" smooth="yes"/>
      <point x="212" y="369"/>
      <point x="149" y="367"/>
      <point x="140" y="356" type="curve"/>
      <point x="137" y="352"/>
      <point x="137" y="348"/>
      <point x="137" y="334" type="curve" smooth="yes"/>
      <point x="137" y="239" type="line" smooth="yes"/>
      <point x="137" y="235"/>
      <point x="133" y="231"/>
      <point x="131" y="231" type="curve" smooth="yes"/>
      <point x="86" y="231" type="line" smooth="yes"/>
      <point x="85" y="231"/>
      <point x="85" y="237"/>
      <point x="86" y="240" type="curve" smooth="yes"/>
      <point x="205" y="628" type="line"/>
      <point x="205" y="628"/>
      <point x="208" y="642"/>
      <point x="206" y="642" type="curve" smooth="yes"/>
      <point x="181" y="642" type="line" smooth="yes"/>
      <point x="177" y="642"/>
      <point x="172" y="626"/>
      <point x="168" y="614" type="curve" smooth="yes"/>
      <point x="53" y="235" type="line" smooth="yes"/>
      <point x="47" y="217"/>
      <point x="46" y="219"/>
      <point x="35" y="188" type="curve"/>
      <point x="35" y="187"/>
      <point x="35" y="186"/>
      <point x="35" y="185" type="curve" smooth="yes"/>
      <point x="35" y="181"/>
      <point x="37" y="175"/>
      <point x="39" y="175" type="curve" smooth="yes"/>
      <point x="85" y="175"/>
      <point x="101" y="182"/>
      <point x="131" y="182" type="curve" smooth="yes"/>
      <point x="131" y="182"/>
      <point x="137" y="179"/>
      <point x="137" y="173" type="curve" smooth="yes"/>
      <point x="137" y="80" type="line" smooth="yes"/>
      <point x="137" y="51"/>
      <point x="123" y="28"/>
      <point x="97" y="22" type="curve" smooth="yes"/>
      <point x="93" y="21"/>
      <point x="90" y="17"/>
      <point x="90" y="10" type="curve" smooth="yes"/>
      <point x="90" y="1"/>
      <point x="94" y="-3"/>
    </contour>
  </outline>
</glyph>
<glyph name="five" format="1">
  <advance width="282"/>
  <unicode hex="0035"/>
  <outline>
    <contour>
      <point x="74" y="-38" type="curve" smooth="yes"/>
      <point x="109" y="-38"/>
      <point x="141" y="-20"/>
      <point x="167" y="10" type="curve" smooth="yes"/>
      <point x="204" y="52"/>
      <point x="226" y="120"/>
      <point x="226" y="193" type="curve" smooth="yes"/>
      <point x="226" y="274"/>
      <point x="206" y="321"/>
      <point x="169" y="359" type="curve" smooth="yes"/>
      <point x="146" y="383"/>
      <point x="130" y="399"/>
      <point x="95" y="422" type="curve" smooth="yes"/>
      <point x="89" y="426"/>
      <point x="88" y="432"/>
      <point x="88" y="441" type="curve" smooth="yes"/>
      <point x="88" y="457"/>
      <point x="109" y="518"/>
      <point x="115" y="520" type="curve" smooth="yes"/>
      <point x="129" y="525"/>
      <point x="160" y="531"/>
      <point x="183" y="538" type="curve" smooth="yes"/>
      <point x="190" y="540"/>
      <point x="195" y="550"/>
      <point x="199" y="570" type="curve" smooth="yes"/>
      <point x="201" y="580"/>
      <point x="205" y="592"/>
      <point x="207" y="603" type="curve" smooth="yes"/>
      <point x="209" y="612"/>
      <point x="206" y="620"/>
      <point x="195" y="619" type="curve" smooth="yes"/>
      <point x="163" y="616"/>
      <point x="133" y="607"/>
      <point x="106" y="592" type="curve" smooth="yes"/>
      <point x="97" y="587"/>
      <point x="90" y="576"/>
      <point x="85" y="556" type="curve" smooth="yes"/>
      <point x="74" y="512"/>
      <point x="60" y="433"/>
      <point x="60" y="397" type="curve" smooth="yes"/>
      <point x="60" y="379"/>
      <point x="63" y="366"/>
      <point x="70" y="351" type="curve"/>
      <point x="129" y="302"/>
      <point x="149" y="270"/>
      <point x="149" y="179" type="curve" smooth="yes"/>
      <point x="149" y="93"/>
      <point x="124" y="2"/>
      <point x="72" y="-11" type="curve" smooth="yes"/>
      <point x="68" y="-12"/>
      <point x="58" y="-16"/>
      <point x="58" y="-26" type="curve" smooth="yes"/>
      <point x="58" y="-35"/>
      <point x="67" y="-38"/>
    </contour>
  </outline>
</glyph>
<glyph name="six" format="1">
  <advance width="282"/>
  <unicode hex="0036"/>
  <outline>
    <contour>
      <point x="160" y="-16" type="curve" smooth="yes"/>
      <point x="209" y="-16"/>
      <point x="264" y="65"/>
      <point x="264" y="190" type="curve" smooth="yes"/>
      <point x="264" y="262"/>
      <point x="232" y="313"/>
      <point x="196" y="313" type="curve" smooth="yes"/>
      <point x="175" y="313"/>
      <point x="151" y="296"/>
      <point x="139" y="279" type="curve" smooth="yes"/>
      <point x="134" y="272"/>
      <point x="129" y="264"/>
      <point x="126" y="256" type="curve" smooth="yes"/>
      <point x="122" y="246"/>
      <point x="126" y="238"/>
      <point x="133" y="245" type="curve" smooth="yes"/>
      <point x="144" y="256"/>
      <point x="149" y="260"/>
      <point x="159" y="260" type="curve" smooth="yes"/>
      <point x="180" y="260"/>
      <point x="186" y="203"/>
      <point x="186" y="142" type="curve" smooth="yes"/>
      <point x="186" y="59"/>
      <point x="172" y="21"/>
      <point x="157" y="22" type="curve" smooth="yes"/>
      <point x="137" y="23"/>
      <point x="116" y="84"/>
      <point x="115" y="195" type="curve"/>
      <point x="115" y="299"/>
      <point x="138" y="408"/>
      <point x="151" y="456" type="curve" smooth="yes"/>
      <point x="171" y="529"/>
      <point x="193" y="576"/>
      <point x="231" y="614" type="curve" smooth="yes"/>
      <point x="234" y="617"/>
      <point x="241" y="624"/>
      <point x="241" y="634" type="curve" smooth="yes"/>
      <point x="241" y="638"/>
      <point x="239" y="644"/>
      <point x="223" y="636" type="curve" smooth="yes"/>
      <point x="168" y="608"/>
      <point x="120" y="528"/>
      <point x="93" y="477" type="curve" smooth="yes"/>
      <point x="73" y="439"/>
      <point x="29" y="342"/>
      <point x="29" y="193" type="curve" smooth="yes"/>
      <point x="29" y="53"/>
      <point x="94" y="-16"/>
    </contour>
  </outline>
</glyph>
<glyph name="seven" format="1">
  <advance width="282"/>
  <unicode hex="0037"/>
  <outline>
    <contour>
      <point x="89" y="-32"/>
      <point x="100" y="-19"/>
      <point x="103" y="-5" type="curve" smooth="yes"/>
      <point x="235" y="538" type="line" smooth="yes"/>
      <point x="239" y="555"/>
      <point x="252" y="592"/>
      <point x="252" y="608" type="curve" smooth="yes"/>
      <point x="252" y="613"/>
      <point x="251" y="621"/>
      <point x="249" y="621" type="curve" smooth="yes"/>
      <point x="240" y="621"/>
      <point x="191" y="616"/>
      <point x="148" y="616" type="curve" smooth="yes"/>
      <point x="128" y="616"/>
      <point x="118" y="617"/>
      <point x="105" y="617" type="curve" smooth="yes"/>
      <point x="87" y="617"/>
      <point x="70" y="626"/>
      <point x="68" y="626" type="curve" smooth="yes"/>
      <point x="67" y="626"/>
      <point x="64" y="624"/>
      <point x="64" y="615" type="curve" smooth="yes"/>
      <point x="64" y="590"/>
      <point x="60" y="545"/>
      <point x="57" y="516" type="curve"/>
      <point x="56" y="511"/>
      <point x="55" y="501"/>
      <point x="55" y="494" type="curve" smooth="yes"/>
      <point x="55" y="489"/>
      <point x="55" y="480"/>
      <point x="61" y="480" type="curve" smooth="yes"/>
      <point x="70" y="480"/>
      <point x="79" y="492"/>
      <point x="84" y="505" type="curve" smooth="yes"/>
      <point x="98" y="542"/>
      <point x="110" y="551"/>
      <point x="124" y="551" type="curve" smooth="yes"/>
      <point x="223" y="551" type="line"/>
      <point x="207" y="581" type="line"/>
      <point x="73" y="35" type="line" smooth="yes"/>
      <point x="69" y="19"/>
      <point x="64" y="-2"/>
      <point x="64" y="-6" type="curve" smooth="yes"/>
      <point x="64" y="-21"/>
      <point x="69" y="-32"/>
      <point x="85" y="-32" type="curve" smooth="yes"/>
    </contour>
  </outline>
</glyph>
<glyph name="eight" format="1">
  <advance width="282"/>
  <unicode hex="0038"/>
  <outline>
    <contour>
      <point x="135" y="-14" type="curve" smooth="yes"/>
      <point x="202" y="-14"/>
      <point x="268" y="60"/>
      <point x="268" y="164" type="curve" smooth="yes"/>
      <point x="268" y="241"/>
      <point x="233" y="285"/>
      <point x="185" y="341" type="curve" smooth="yes"/>
      <point x="179" y="348"/>
      <point x="177" y="350"/>
      <point x="189" y="362" type="curve" smooth="yes"/>
      <point x="205" y="378"/>
      <point x="208" y="384"/>
      <point x="220" y="400" type="curve" smooth="yes"/>
      <point x="235" y="420"/>
      <point x="256" y="448"/>
      <point x="256" y="496" type="curve" smooth="yes"/>
      <point x="256" y="577"/>
      <point x="202" y="630"/>
      <point x="147" y="630" type="curve" smooth="yes"/>
      <point x="87" y="630"/>
      <point x="25" y="567"/>
      <point x="25" y="489" type="curve" smooth="yes"/>
      <point x="25" y="404"/>
      <point x="58" y="361"/>
      <point x="100" y="312" type="curve" smooth="yes"/>
      <point x="106" y="305"/>
      <point x="110" y="304"/>
      <point x="103" y="299" type="curve" smooth="yes"/>
      <point x="67" y="273"/>
      <point x="14" y="229"/>
      <point x="14" y="141" type="curve" smooth="yes"/>
      <point x="14" y="49"/>
      <point x="71" y="-14"/>
    </contour>
    <contour>
      <point x="143" y="15" type="curve" smooth="yes"/>
      <point x="112" y="15"/>
      <point x="94" y="87"/>
      <point x="94" y="157" type="curve" smooth="yes"/>
      <point x="94" y="221"/>
      <point x="100" y="237"/>
      <point x="118" y="273" type="curve" smooth="yes"/>
      <point x="120" y="277"/>
      <point x="122" y="279"/>
      <point x="123" y="279" type="curve" smooth="yes"/>
      <point x="126" y="279"/>
      <point x="127" y="275"/>
      <point x="132" y="269" type="curve" smooth="yes"/>
      <point x="161" y="235"/>
      <point x="188" y="186"/>
      <point x="188" y="124" type="curve" smooth="yes"/>
      <point x="188" y="65"/>
      <point x="169" y="15"/>
    </contour>
    <contour>
      <point x="160" y="381" type="curve" smooth="yes"/>
      <point x="158" y="378"/>
      <point x="154" y="378"/>
      <point x="153" y="381" type="curve"/>
      <point x="115" y="428"/>
      <point x="101" y="432"/>
      <point x="101" y="509" type="curve" smooth="yes"/>
      <point x="101" y="563"/>
      <point x="124" y="606"/>
      <point x="143" y="606" type="curve" smooth="yes"/>
      <point x="167" y="606"/>
      <point x="182" y="559"/>
      <point x="182" y="503" type="curve" smooth="yes"/>
      <point x="182" y="442"/>
      <point x="180" y="418"/>
    </contour>
  </outline>
</glyph>
<glyph name="less" format="1">
  <advance width="302"/>
  <unicode hex="003C"/>
  <outline>
    <contour>
      <point x="258" y="116" type="line" smooth="yes"/>
      <point x="266" y="113"/>
      <point x="281" y="112"/>
      <point x="281" y="127" type="curve" smooth="yes"/>
      <point x="281" y="137"/>
      <point x="276" y="174"/>
      <point x="253" y="182" type="curve" smooth="yes"/>
      <point x="113" y="229" type="line"/>
      <point x="109" y="230"/>
      <point x="108" y="233"/>
      <point x="112" y="234" type="curve"/>
      <point x="246" y="298" type="line" smooth="yes"/>
      <point x="269" y="309"/>
      <point x="281" y="343"/>
      <point x="281" y="357" type="curve" smooth="yes"/>
      <point x="281" y="364"/>
      <point x="278" y="368"/>
      <point x="271" y="368" type="curve" smooth="yes"/>
      <point x="270" y="368"/>
      <point x="265" y="366"/>
      <point x="262" y="365" type="curve" smooth="yes"/>
      <point x="59" y="273" type="line" smooth="yes"/>
      <point x="36" y="262"/>
      <point x="21" y="231"/>
      <point x="21" y="221" type="curve" smooth="yes"/>
      <point x="21" y="214"/>
      <point x="49" y="197"/>
      <point x="68" y="190" type="curve" smooth="yes"/>
    </contour>
  </outline>
</glyph>
<glyph name="equal" format="1">
  <advance width="263"/>
  <unicode hex="003D"/>
  <outline>
    <contour>
      <point x="36" y="311" type="curve"/>
      <point x="210" y="311" type="line"/>
      <point x="229" y="311"/>
      <point x="241" y="342"/>
      <point x="241" y="359" type="curve" smooth="yes"/>
      <point x="241" y="365"/>
      <point x="235" y="369"/>
      <point x="228" y="369" type="curve"/>
      <point x="46" y="369" type="line"/>
      <point x="28" y="369"/>
      <point x="22" y="332"/>
      <point x="22" y="323" type="curve" smooth="yes"/>
      <point x="22" y="317"/>
      <point x="29" y="311"/>
    </contour>
    <contour>
      <point x="36" y="139" type="curve"/>
      <point x="210" y="139" type="line"/>
      <point x="229" y="139"/>
      <point x="241" y="170"/>
      <point x="241" y="187" type="curve" smooth="yes"/>
      <point x="241" y="193"/>
      <point x="235" y="197"/>
      <point x="228" y="197" type="curve"/>
      <point x="46" y="197" type="line"/>
      <point x="28" y="197"/>
      <point x="22" y="160"/>
      <point x="22" y="151" type="curve" smooth="yes"/>
      <point x="22" y="145"/>
      <point x="29" y="139"/>
    </contour>
  </outline>
</glyph>
<glyph name="question" format="1">
  <advance width="214"/>
  <unicode hex="003F"/>
  <outline>
    <contour>
      <point x="88" y="181"/>
      <point x="92" y="194"/>
      <point x="93" y="204" type="curve" smooth="yes"/>
      <point x="99" y="251"/>
      <point x="105" y="278"/>
      <point x="131" y="304" type="curve" smooth="yes"/>
      <point x="140" y="313"/>
      <point x="147" y="321"/>
      <point x="156" y="330" type="curve" smooth="yes"/>
      <point x="169" y="343"/>
      <point x="182" y="369"/>
      <point x="182" y="418" type="curve" smooth="yes"/>
      <point x="182" y="469"/>
      <point x="159" y="551"/>
      <point x="129" y="607" type="curve" smooth="yes"/>
      <point x="107" y="640"/>
      <point x="82" y="661"/>
      <point x="62" y="661" type="curve" smooth="yes"/>
      <point x="49" y="661"/>
      <point x="35" y="647"/>
      <point x="35" y="623" type="curve" smooth="yes"/>
      <point x="35" y="589"/>
      <point x="44" y="569"/>
      <point x="57" y="569" type="curve" smooth="yes"/>
      <point x="62" y="569"/>
      <point x="66" y="570"/>
      <point x="69" y="571" type="curve" smooth="yes"/>
      <point x="73" y="572"/>
      <point x="76" y="573"/>
      <point x="81" y="573" type="curve" smooth="yes"/>
      <point x="119" y="572"/>
      <point x="140" y="539"/>
      <point x="140" y="493" type="curve" smooth="yes"/>
      <point x="140" y="460"/>
      <point x="128" y="422"/>
      <point x="102" y="392" type="curve" smooth="yes"/>
      <point x="64" y="349"/>
      <point x="48" y="325"/>
      <point x="48" y="295" type="curve" smooth="yes"/>
      <point x="48" y="250"/>
      <point x="58" y="231"/>
      <point x="63" y="210" type="curve" smooth="yes"/>
      <point x="67" y="194"/>
      <point x="74" y="181"/>
      <point x="81" y="181" type="curve" smooth="yes"/>
    </contour>
    <contour>
      <point x="132" y="-14"/>
      <point x="159" y="13"/>
      <point x="159" y="46" type="curve" smooth="yes"/>
      <point x="159" y="79"/>
      <point x="132" y="106"/>
      <point x="99" y="106" type="curve" smooth="yes"/>
      <point x="66" y="106"/>
      <point x="39" y="79"/>
      <point x="39" y="46" type="curve" smooth="yes"/>
      <point x="39" y="13"/>
      <point x="66" y="-14"/>
      <point x="99" y="-14" type="curve" smooth="yes"/>
    </contour>
  </outline>
</glyph>
<glyph name="D" format="1">
  <advance width="330"/>
  <unicode hex="0044"/>
  <outline>
    <contour>
      <point x="161" y="-7" type="curve" smooth="yes"/>
      <point x="242" y="-7"/>
      <point x="310" y="150"/>
      <point x="310" y="342" type="curve" smooth="yes"/>
      <point x="310" y="517"/>
      <point x="263" y="659"/>
      <point x="146" y="659" type="curve" smooth="yes"/>
      <point x="135" y="659"/>
      <point x="92" y="651"/>
      <point x="73" y="651" type="curve" smooth="yes"/>
      <point x="52" y="651"/>
      <point x="47" y="653"/>
      <point x="22" y="653" type="curve" smooth="yes"/>
      <point x="15" y="653"/>
      <point x="9" y="649"/>
      <point x="9" y="640" type="curve" smooth="yes"/>
      <point x="9" y="629"/>
      <point x="12" y="626"/>
      <point x="19" y="622" type="curve" smooth="yes"/>
      <point x="35" y="613"/>
      <point x="41" y="597"/>
      <point x="41" y="549" type="curve" smooth="yes"/>
      <point x="41" y="99" type="line" smooth="yes"/>
      <point x="41" y="51"/>
      <point x="35" y="33"/>
      <point x="19" y="24" type="curve" smooth="yes"/>
      <point x="12" y="20"/>
      <point x="9" y="19"/>
      <point x="9" y="8" type="curve" smooth="yes"/>
      <point x="9" y="-2"/>
      <point x="15" y="-5"/>
      <point x="22" y="-5" type="curve" smooth="yes"/>
      <point x="48" y="-5"/>
      <point x="53" y="0"/>
      <point x="70" y="0" type="curve" smooth="yes"/>
      <point x="104" y="0"/>
      <point x="151" y="-7"/>
    </contour>
    <contour>
      <point x="155" y="28" type="curve" smooth="yes"/>
      <point x="138" y="28"/>
      <point x="121" y="40"/>
      <point x="121" y="121" type="curve" smooth="yes"/>
      <point x="121" y="567" type="line" smooth="yes"/>
      <point x="121" y="627"/>
      <point x="131" y="628"/>
      <point x="152" y="628" type="curve" smooth="yes"/>
      <point x="179" y="628"/>
      <point x="214" y="579"/>
      <point x="214" y="325" type="curve" smooth="yes"/>
      <point x="214" y="107"/>
      <point x="189" y="28"/>
    </contour>
  </outline>
</glyph>
<glyph name="E" format="1">
  <advance width="280"/>
  <unicode hex="0045"/>
  <outline>
    <contour>
      <point x="22" y="-5" type="curve" smooth="yes"/>
      <point x="51" y="-5"/>
      <point x="59" y="1"/>
      <point x="84" y="1" type="curve" smooth="yes"/>
      <point x="139" y="1"/>
      <point x="185" y="-5"/>
      <point x="255" y="-5" type="curve" smooth="yes"/>
      <point x="259" y="-5"/>
      <point x="260" y="3"/>
      <point x="261" y="12" type="curve" smooth="yes"/>
      <point x="264" y="39"/>
      <point x="275" y="110"/>
      <point x="275" y="128" type="curve" smooth="yes"/>
      <point x="275" y="136"/>
      <point x="270" y="142"/>
      <point x="264" y="142" type="curve" smooth="yes"/>
      <point x="259" y="142"/>
      <point x="254" y="140"/>
      <point x="251" y="129" type="curve" smooth="yes"/>
      <point x="241" y="89"/>
      <point x="235" y="66"/>
      <point x="226" y="52" type="curve" smooth="yes"/>
      <point x="217" y="39"/>
      <point x="205" y="35"/>
      <point x="186" y="35" type="curve" smooth="yes"/>
      <point x="165" y="35" type="line" smooth="yes"/>
      <point x="145" y="35"/>
      <point x="136" y="51"/>
      <point x="136" y="102" type="curve" smooth="yes"/>
      <point x="136" y="294" type="line" smooth="yes"/>
      <point x="136" y="317"/>
      <point x="141" y="320"/>
      <point x="151" y="320" type="curve" smooth="yes"/>
      <point x="178" y="320" type="line" smooth="yes"/>
      <point x="189" y="320"/>
      <point x="203" y="306"/>
      <point x="210" y="275" type="curve" smooth="yes"/>
      <point x="216" y="249"/>
      <point x="218" y="243"/>
      <point x="226" y="243" type="curve" smooth="yes"/>
      <point x="234" y="243"/>
      <point x="236" y="251"/>
      <point x="236" y="260" type="curve" smooth="yes"/>
      <point x="236" y="268"/>
      <point x="233" y="317"/>
      <point x="233" y="337" type="curve" smooth="yes"/>
      <point x="233" y="353"/>
      <point x="236" y="398"/>
      <point x="236" y="407" type="curve" smooth="yes"/>
      <point x="236" y="417"/>
      <point x="229" y="423"/>
      <point x="223" y="423" type="curve" smooth="yes"/>
      <point x="218" y="423"/>
      <point x="213" y="419"/>
      <point x="211" y="401" type="curve" smooth="yes"/>
      <point x="207" y="364"/>
      <point x="190" y="352"/>
      <point x="173" y="352" type="curve" smooth="yes"/>
      <point x="144" y="352" type="line" smooth="yes"/>
      <point x="139" y="352"/>
      <point x="136" y="362"/>
      <point x="136" y="374" type="curve" smooth="yes"/>
      <point x="136" y="586" type="line" smooth="yes"/>
      <point x="136" y="605"/>
      <point x="147" y="618"/>
      <point x="152" y="618" type="curve" smooth="yes"/>
      <point x="196" y="618" type="line" smooth="yes"/>
      <point x="207" y="618"/>
      <point x="218" y="612"/>
      <point x="226" y="591" type="curve" smooth="yes"/>
      <point x="230" y="581"/>
      <point x="236" y="558"/>
      <point x="239" y="536" type="curve" smooth="yes"/>
      <point x="240" y="529"/>
      <point x="246" y="526"/>
      <point x="249" y="526" type="curve" smooth="yes"/>
      <point x="252" y="526"/>
      <point x="260" y="529"/>
      <point x="260" y="541" type="curve" smooth="yes"/>
      <point x="260" y="568"/>
      <point x="257" y="606"/>
      <point x="254" y="644" type="curve"/>
      <point x="253" y="651"/>
      <point x="249" y="653"/>
      <point x="246" y="653" type="curve" smooth="yes"/>
      <point x="243" y="653"/>
      <point x="220" y="652"/>
      <point x="190" y="651" type="curve" smooth="yes"/>
      <point x="164" y="650"/>
      <point x="131" y="650"/>
      <point x="102" y="650" type="curve" smooth="yes"/>
      <point x="72" y="650"/>
      <point x="58" y="653"/>
      <point x="25" y="653" type="curve" smooth="yes"/>
      <point x="17" y="653"/>
      <point x="12" y="650"/>
      <point x="12" y="642" type="curve" smooth="yes"/>
      <point x="12" y="633"/>
      <point x="16" y="626"/>
      <point x="26" y="622" type="curve" smooth="yes"/>
      <point x="48" y="613"/>
      <point x="56" y="597"/>
      <point x="56" y="549" type="curve" smooth="yes"/>
      <point x="56" y="99" type="line" smooth="yes"/>
      <point x="56" y="51"/>
      <point x="45" y="33"/>
      <point x="23" y="24" type="curve" smooth="yes"/>
      <point x="13" y="20"/>
      <point x="9" y="15"/>
      <point x="9" y="6" type="curve" smooth="yes"/>
      <point x="9" y="-2"/>
      <point x="14" y="-5"/>
    </contour>
  </outline>
</glyph>
<glyph name="G" format="1">
  <advance width="351"/>
  <unicode hex="0047"/>
  <outline>
    <contour>
      <point x="190" y="-11" type="curve" smooth="yes"/>
      <point x="252" y="-11"/>
      <point x="296" y="53"/>
      <point x="305" y="56" type="curve" smooth="yes"/>
      <point x="312" y="59"/>
      <point x="312" y="70"/>
      <point x="312" y="75" type="curve" smooth="yes"/>
      <point x="312" y="79"/>
      <point x="308" y="84"/>
      <point x="306" y="91" type="curve"/>
      <point x="305" y="97"/>
      <point x="303" y="100"/>
      <point x="303" y="107" type="curve" smooth="yes"/>
      <point x="303" y="134" type="line" smooth="yes"/>
      <point x="303" y="159"/>
      <point x="304" y="179"/>
      <point x="305" y="208" type="curve" smooth="yes"/>
      <point x="306" y="235"/>
      <point x="311" y="249"/>
      <point x="320" y="254" type="curve" smooth="yes"/>
      <point x="326" y="258"/>
      <point x="333" y="266"/>
      <point x="333" y="275" type="curve" smooth="yes"/>
      <point x="333" y="287"/>
      <point x="326" y="290"/>
      <point x="323" y="290" type="curve" smooth="yes"/>
      <point x="301" y="290"/>
      <point x="290" y="286"/>
      <point x="269" y="286" type="curve" smooth="yes"/>
      <point x="235" y="286"/>
      <point x="221" y="290"/>
      <point x="196" y="290" type="curve" smooth="yes"/>
      <point x="189" y="290"/>
      <point x="183" y="283"/>
      <point x="183" y="274" type="curve" smooth="yes"/>
      <point x="183" y="264"/>
      <point x="189" y="258"/>
      <point x="195" y="257" type="curve" smooth="yes"/>
      <point x="209" y="255"/>
      <point x="218" y="251"/>
      <point x="225" y="245" type="curve" smooth="yes"/>
      <point x="234" y="235"/>
      <point x="237" y="220"/>
      <point x="237" y="196" type="curve" smooth="yes"/>
      <point x="237" y="178"/>
      <point x="236" y="156"/>
      <point x="236" y="139" type="curve" smooth="yes"/>
      <point x="236" y="104"/>
      <point x="231" y="77"/>
      <point x="227" y="63" type="curve" smooth="yes"/>
      <point x="224" y="51"/>
      <point x="214" y="26"/>
      <point x="192" y="26" type="curve" smooth="yes"/>
      <point x="144" y="26"/>
      <point x="122" y="141"/>
      <point x="122" y="324" type="curve" smooth="yes"/>
      <point x="122" y="480"/>
      <point x="156" y="622"/>
      <point x="205" y="622" type="curve" smooth="yes"/>
      <point x="235" y="622"/>
      <point x="252" y="585"/>
      <point x="256" y="570" type="curve" smooth="yes"/>
      <point x="261" y="551"/>
      <point x="264" y="538"/>
      <point x="267" y="517" type="curve" smooth="yes"/>
      <point x="269" y="501"/>
      <point x="277" y="481"/>
      <point x="291" y="481" type="curve" smooth="yes"/>
      <point x="299" y="481"/>
      <point x="306" y="494"/>
      <point x="306" y="508" type="curve" smooth="yes"/>
      <point x="306" y="534"/>
      <point x="302" y="576"/>
      <point x="302" y="615" type="curve" smooth="yes"/>
      <point x="302" y="622"/>
      <point x="301" y="624"/>
      <point x="297" y="627" type="curve" smooth="yes"/>
      <point x="283" y="640"/>
      <point x="239" y="660"/>
      <point x="200" y="660" type="curve" smooth="yes"/>
      <point x="104" y="660"/>
      <point x="22" y="507"/>
      <point x="22" y="311" type="curve" smooth="yes"/>
      <point x="22" y="128"/>
      <point x="101" y="-11"/>
    </contour>
  </outline>
</glyph>
<glyph name="H" format="1">
  <advance width="332"/>
  <unicode hex="0048"/>
  <outline>
    <contour>
      <point x="24" y="-5" type="curve" smooth="yes"/>
      <point x="52" y="-5"/>
      <point x="60" y="0"/>
      <point x="82" y="0" type="curve" smooth="yes"/>
      <point x="106" y="0"/>
      <point x="116" y="-5"/>
      <point x="144" y="-5" type="curve" smooth="yes"/>
      <point x="153" y="-5"/>
      <point x="159" y="0"/>
      <point x="159" y="8" type="curve" smooth="yes"/>
      <point x="159" y="17"/>
      <point x="156" y="20"/>
      <point x="148" y="24" type="curve" smooth="yes"/>
      <point x="132" y="32"/>
      <point x="121" y="47"/>
      <point x="121" y="106" type="curve" smooth="yes"/>
      <point x="121" y="299" type="line" smooth="yes"/>
      <point x="121" y="305"/>
      <point x="123" y="307"/>
      <point x="126" y="307" type="curve" smooth="yes"/>
      <point x="206" y="307" type="line" smooth="yes"/>
      <point x="209" y="307"/>
      <point x="211" y="305"/>
      <point x="211" y="301" type="curve" smooth="yes"/>
      <point x="211" y="106" type="line" smooth="yes"/>
      <point x="211" y="55"/>
      <point x="201" y="32"/>
      <point x="184" y="24" type="curve" smooth="yes"/>
      <point x="176" y="20"/>
      <point x="173" y="17"/>
      <point x="173" y="8" type="curve" smooth="yes"/>
      <point x="173" y="0"/>
      <point x="179" y="-5"/>
      <point x="188" y="-5" type="curve" smooth="yes"/>
      <point x="216" y="-5"/>
      <point x="226" y="0"/>
      <point x="250" y="0" type="curve" smooth="yes"/>
      <point x="272" y="0"/>
      <point x="280" y="-5"/>
      <point x="308" y="-5" type="curve" smooth="yes"/>
      <point x="317" y="-5"/>
      <point x="323" y="0"/>
      <point x="323" y="8" type="curve" smooth="yes"/>
      <point x="323" y="17"/>
      <point x="320" y="20"/>
      <point x="312" y="24" type="curve" smooth="yes"/>
      <point x="296" y="32"/>
      <point x="291" y="39"/>
      <point x="291" y="99" type="curve" smooth="yes"/>
      <point x="291" y="551" type="line" smooth="yes"/>
      <point x="291" y="606"/>
      <point x="296" y="615"/>
      <point x="309" y="622" type="curve" smooth="yes"/>
      <point x="317" y="626"/>
      <point x="321" y="631"/>
      <point x="321" y="640" type="curve" smooth="yes"/>
      <point x="321" y="648"/>
      <point x="316" y="653"/>
      <point x="305" y="653" type="curve" smooth="yes"/>
      <point x="275" y="653"/>
      <point x="270" y="650"/>
      <point x="250" y="650" type="curve" smooth="yes"/>
      <point x="228" y="650"/>
      <point x="221" y="653"/>
      <point x="193" y="653" type="curve" smooth="yes"/>
      <point x="182" y="653"/>
      <point x="177" y="648"/>
      <point x="177" y="640" type="curve" smooth="yes"/>
      <point x="177" y="631"/>
      <point x="180" y="626"/>
      <point x="188" y="622" type="curve" smooth="yes"/>
      <point x="204" y="614"/>
      <point x="211" y="600"/>
      <point x="211" y="551" type="curve" smooth="yes"/>
      <point x="211" y="352" type="line" smooth="yes"/>
      <point x="211" y="348"/>
      <point x="209" y="345"/>
      <point x="206" y="345" type="curve" smooth="yes"/>
      <point x="128" y="345" type="line" smooth="yes"/>
      <point x="124" y="345"/>
      <point x="121" y="347"/>
      <point x="121" y="354" type="curve" smooth="yes"/>
      <point x="121" y="551" type="line" smooth="yes"/>
      <point x="121" y="590"/>
      <point x="127" y="613"/>
      <point x="144" y="622" type="curve" smooth="yes"/>
      <point x="152" y="626"/>
      <point x="155" y="631"/>
      <point x="155" y="640" type="curve" smooth="yes"/>
      <point x="155" y="648"/>
      <point x="150" y="653"/>
      <point x="139" y="653" type="curve" smooth="yes"/>
      <point x="111" y="653"/>
      <point x="104" y="650"/>
      <point x="82" y="650" type="curve" smooth="yes"/>
      <point x="62" y="650"/>
      <point x="57" y="653"/>
      <point x="27" y="653" type="curve" smooth="yes"/>
      <point x="16" y="653"/>
      <point x="11" y="648"/>
      <point x="11" y="640" type="curve" smooth="yes"/>
      <point x="11" y="631"/>
      <point x="15" y="626"/>
      <point x="23" y="622" type="curve" smooth="yes"/>
      <point x="37" y="615"/>
      <point x="41" y="602"/>
      <point x="41" y="551" type="curve" smooth="yes"/>
      <point x="41" y="99" type="line" smooth="yes"/>
      <point x="41" y="45"/>
      <point x="37" y="33"/>
      <point x="20" y="24" type="curve" smooth="yes"/>
      <point x="12" y="20"/>
      <point x="9" y="17"/>
      <point x="9" y="8" type="curve" smooth="yes"/>
      <point x="9" y="0"/>
      <point x="15" y="-5"/>
    </contour>
  </outline>
</glyph>
<glyph name="I" format="1">
  <advance width="168"/>
  <unicode hex="0049"/>
  <outline>
    <contour>
      <point x="14" y="-5" type="curve" smooth="yes"/>
      <point x="31" y="-5"/>
      <point x="39" y="0"/>
      <point x="86" y="0" type="curve" smooth="yes"/>
      <point x="124" y="0"/>
      <point x="131" y="-5"/>
      <point x="152" y="-5" type="curve" smooth="yes"/>
      <point x="158" y="-5"/>
      <point x="163" y="-2"/>
      <point x="163" y="6" type="curve" smooth="yes"/>
      <point x="163" y="15"/>
      <point x="159" y="20"/>
      <point x="150" y="24" type="curve" smooth="yes"/>
      <point x="131" y="33"/>
      <point x="120" y="51"/>
      <point x="120" y="98" type="curve" smooth="yes"/>
      <point x="120" y="550" type="line" smooth="yes"/>
      <point x="120" y="597"/>
      <point x="128" y="613"/>
      <point x="147" y="622" type="curve" smooth="yes"/>
      <point x="155" y="626"/>
      <point x="160" y="633"/>
      <point x="160" y="642" type="curve" smooth="yes"/>
      <point x="160" y="650"/>
      <point x="155" y="653"/>
      <point x="149" y="653" type="curve" smooth="yes"/>
      <point x="128" y="653"/>
      <point x="123" y="650"/>
      <point x="86" y="650" type="curve" smooth="yes"/>
      <point x="40" y="650"/>
      <point x="34" y="653"/>
      <point x="17" y="653" type="curve" smooth="yes"/>
      <point x="11" y="653"/>
      <point x="8" y="650"/>
      <point x="8" y="642" type="curve" smooth="yes"/>
      <point x="8" y="633"/>
      <point x="11" y="626"/>
      <point x="18" y="622" type="curve" smooth="yes"/>
      <point x="34" y="613"/>
      <point x="40" y="597"/>
      <point x="40" y="550" type="curve" smooth="yes"/>
      <point x="40" y="98" type="line" smooth="yes"/>
      <point x="40" y="51"/>
      <point x="31" y="33"/>
      <point x="15" y="24" type="curve" smooth="yes"/>
      <point x="8" y="20"/>
      <point x="4" y="15"/>
      <point x="4" y="6" type="curve" smooth="yes"/>
      <point x="4" y="-2"/>
      <point x="8" y="-5"/>
    </contour>
  </outline>
</glyph>
<glyph name="J" format="1">
  <advance width="209"/>
  <unicode hex="004A"/>
  <outline>
    <contour>
      <point x="48" y="-200" type="curve" smooth="yes"/>
      <point x="70" y="-200"/>
      <point x="88" y="-178"/>
      <point x="104" y="-146" type="curve" smooth="yes"/>
      <point x="122" y="-108"/>
      <point x="150" y="-37"/>
      <point x="150" y="47" type="curve" smooth="yes"/>
      <point x="150" y="551" type="line" smooth="yes"/>
      <point x="150" y="597"/>
      <point x="153" y="613"/>
      <point x="175" y="622" type="curve" smooth="yes"/>
      <point x="185" y="626"/>
      <point x="189" y="633"/>
      <point x="189" y="642" type="curve" smooth="yes"/>
      <point x="189" y="650"/>
      <point x="184" y="653"/>
      <point x="177" y="653" type="curve" smooth="yes"/>
      <point x="142" y="653"/>
      <point x="140" y="650"/>
      <point x="117" y="650" type="curve" smooth="yes"/>
      <point x="86" y="650"/>
      <point x="75" y="653"/>
      <point x="40" y="653" type="curve" smooth="yes"/>
      <point x="34" y="653"/>
      <point x="27" y="650"/>
      <point x="27" y="642" type="curve" smooth="yes"/>
      <point x="27" y="633"/>
      <point x="33" y="626"/>
      <point x="42" y="622" type="curve" smooth="yes"/>
      <point x="62" y="613"/>
      <point x="70" y="597"/>
      <point x="70" y="551" type="curve" smooth="yes"/>
      <point x="70" y="-1" type="line" smooth="yes"/>
      <point x="70" y="-98"/>
      <point x="63" y="-159"/>
      <point x="43" y="-159" type="curve" smooth="yes"/>
      <point x="36" y="-159"/>
      <point x="30" y="-151"/>
      <point x="23" y="-129" type="curve" smooth="yes"/>
      <point x="17" y="-111"/>
      <point x="11" y="-104"/>
      <point x="-5" y="-104" type="curve" smooth="yes"/>
      <point x="-20" y="-104"/>
      <point x="-35" y="-127"/>
      <point x="-35" y="-151" type="curve" smooth="yes"/>
      <point x="-35" y="-182"/>
      <point x="-7" y="-200"/>
    </contour>
  </outline>
</glyph>
<glyph name="K" format="1">
  <advance width="350"/>
  <unicode hex="004B"/>
  <outline>
    <contour>
      <point x="31" y="-5" type="curve" smooth="yes"/>
      <point x="62" y="-5"/>
      <point x="66" y="2"/>
      <point x="92" y="2" type="curve" smooth="yes"/>
      <point x="114" y="2"/>
      <point x="124" y="-5"/>
      <point x="149" y="-5" type="curve" smooth="yes"/>
      <point x="157" y="-5"/>
      <point x="162" y="-2"/>
      <point x="162" y="6" type="curve" smooth="yes"/>
      <point x="162" y="15"/>
      <point x="159" y="20"/>
      <point x="151" y="24" type="curve" smooth="yes"/>
      <point x="135" y="32"/>
      <point x="128" y="55"/>
      <point x="128" y="110" type="curve" smooth="yes"/>
      <point x="128" y="190"/>
      <point x="127" y="213"/>
      <point x="127" y="276" type="curve" smooth="yes"/>
      <point x="127" y="283"/>
      <point x="127" y="297"/>
      <point x="129" y="297" type="curve" smooth="yes"/>
      <point x="131" y="297"/>
      <point x="136" y="288"/>
      <point x="139" y="280" type="curve"/>
      <point x="218" y="72" type="line" smooth="yes"/>
      <point x="221" y="63"/>
      <point x="225" y="55"/>
      <point x="225" y="47" type="curve" smooth="yes"/>
      <point x="225" y="39"/>
      <point x="221" y="32"/>
      <point x="212" y="27" type="curve"/>
      <point x="204" y="23"/>
      <point x="201" y="19"/>
      <point x="201" y="10" type="curve" smooth="yes"/>
      <point x="201" y="2"/>
      <point x="206" y="-1"/>
      <point x="213" y="-1" type="curve" smooth="yes"/>
      <point x="233" y="-1"/>
      <point x="252" y="0"/>
      <point x="263" y="0" type="curve" smooth="yes"/>
      <point x="287" y="0"/>
      <point x="321" y="-5"/>
      <point x="347" y="-5" type="curve" smooth="yes"/>
      <point x="354" y="-5"/>
      <point x="360" y="-2"/>
      <point x="360" y="6" type="curve" smooth="yes"/>
      <point x="360" y="15"/>
      <point x="355" y="19"/>
      <point x="345" y="24" type="curve" smooth="yes"/>
      <point x="320" y="36"/>
      <point x="316" y="47"/>
      <point x="297" y="95" type="curve" smooth="yes"/>
      <point x="186" y="377" type="line" smooth="yes"/>
      <point x="183" y="384"/>
      <point x="182" y="390"/>
      <point x="185" y="395" type="curve"/>
      <point x="213" y="472"/>
      <point x="227" y="497"/>
      <point x="256" y="558" type="curve" smooth="yes"/>
      <point x="275" y="597"/>
      <point x="296" y="615"/>
      <point x="317" y="624" type="curve" smooth="yes"/>
      <point x="326" y="628"/>
      <point x="331" y="635"/>
      <point x="331" y="644" type="curve" smooth="yes"/>
      <point x="331" y="651"/>
      <point x="327" y="655"/>
      <point x="321" y="655" type="curve" smooth="yes"/>
      <point x="316" y="655"/>
      <point x="275" y="651"/>
      <point x="250" y="651" type="curve" smooth="yes"/>
      <point x="218" y="651" type="line" smooth="yes"/>
      <point x="211" y="651"/>
      <point x="206" y="648"/>
      <point x="206" y="640" type="curve" smooth="yes"/>
      <point x="206" y="631"/>
      <point x="209" y="625"/>
      <point x="219" y="620" type="curve" smooth="yes"/>
      <point x="225" y="617"/>
      <point x="228" y="608"/>
      <point x="228" y="597" type="curve" smooth="yes"/>
      <point x="228" y="588"/>
      <point x="225" y="577"/>
      <point x="221" y="567" type="curve" smooth="yes"/>
      <point x="141" y="383" type="line"/>
      <point x="138" y="375"/>
      <point x="133" y="365"/>
      <point x="130" y="365" type="curve" smooth="yes"/>
      <point x="127" y="365"/>
      <point x="127" y="379"/>
      <point x="127" y="384" type="curve" smooth="yes"/>
      <point x="127" y="551" type="line" smooth="yes"/>
      <point x="127" y="590"/>
      <point x="130" y="609"/>
      <point x="148" y="620" type="curve" smooth="yes"/>
      <point x="157" y="625"/>
      <point x="161" y="633"/>
      <point x="161" y="642" type="curve" smooth="yes"/>
      <point x="161" y="650"/>
      <point x="154" y="653"/>
      <point x="145" y="653" type="curve" smooth="yes"/>
      <point x="117" y="653"/>
      <point x="115" y="651"/>
      <point x="94" y="651" type="curve" smooth="yes"/>
      <point x="70" y="651"/>
      <point x="62" y="653"/>
      <point x="32" y="653" type="curve" smooth="yes"/>
      <point x="23" y="653"/>
      <point x="15" y="650"/>
      <point x="15" y="642" type="curve" smooth="yes"/>
      <point x="15" y="633"/>
      <point x="19" y="626"/>
      <point x="26" y="622" type="curve" smooth="yes"/>
      <point x="43" y="613"/>
      <point x="48" y="597"/>
      <point x="48" y="551" type="curve" smooth="yes"/>
      <point x="48" y="101" type="line" smooth="yes"/>
      <point x="48" y="51"/>
      <point x="43" y="33"/>
      <point x="26" y="24" type="curve" smooth="yes"/>
      <point x="19" y="20"/>
      <point x="15" y="15"/>
      <point x="15" y="6" type="curve" smooth="yes"/>
      <point x="15" y="-2"/>
      <point x="23" y="-5"/>
    </contour>
  </outline>
</glyph>
<glyph name="L" format="1">
  <advance width="278"/>
  <unicode hex="004C"/>
  <outline>
    <contour>
      <point x="21" y="-5" type="curve"/>
      <point x="21" y="-5"/>
      <point x="58" y="0"/>
      <point x="80" y="0" type="curve" smooth="yes"/>
      <point x="124" y="0"/>
      <point x="197" y="-5"/>
      <point x="256" y="-5" type="curve" smooth="yes"/>
      <point x="260" y="-5"/>
      <point x="261" y="3"/>
      <point x="262" y="12" type="curve" smooth="yes"/>
      <point x="267" y="54"/>
      <point x="268" y="87"/>
      <point x="274" y="139" type="curve"/>
      <point x="274" y="140"/>
      <point x="274" y="142"/>
      <point x="274" y="144" type="curve" smooth="yes"/>
      <point x="274" y="155"/>
      <point x="269" y="162"/>
      <point x="264" y="162" type="curve" smooth="yes"/>
      <point x="257" y="162"/>
      <point x="254" y="154"/>
      <point x="249" y="132" type="curve" smooth="yes"/>
      <point x="240" y="96"/>
      <point x="238" y="84"/>
      <point x="226" y="61" type="curve" smooth="yes"/>
      <point x="220" y="49"/>
      <point x="208" y="35"/>
      <point x="192" y="35" type="curve" smooth="yes"/>
      <point x="168" y="35" type="line" smooth="yes"/>
      <point x="139" y="35"/>
      <point x="134" y="55"/>
      <point x="134" y="96" type="curve" smooth="yes"/>
      <point x="134" y="567" type="line" smooth="yes"/>
      <point x="134" y="606"/>
      <point x="151" y="613"/>
      <point x="173" y="622" type="curve" smooth="yes"/>
      <point x="183" y="626"/>
      <point x="188" y="633"/>
      <point x="188" y="642" type="curve" smooth="yes"/>
      <point x="188" y="650"/>
      <point x="180" y="653"/>
      <point x="171" y="653" type="curve" smooth="yes"/>
      <point x="138" y="653"/>
      <point x="125" y="650"/>
      <point x="97" y="650" type="curve" smooth="yes"/>
      <point x="70" y="650"/>
      <point x="62" y="653"/>
      <point x="29" y="653" type="curve" smooth="yes"/>
      <point x="20" y="653"/>
      <point x="13" y="650"/>
      <point x="13" y="642" type="curve" smooth="yes"/>
      <point x="13" y="633"/>
      <point x="17" y="626"/>
      <point x="27" y="622" type="curve" smooth="yes"/>
      <point x="49" y="613"/>
      <point x="54" y="608"/>
      <point x="54" y="560" type="curve" smooth="yes"/>
      <point x="54" y="96" type="line" smooth="yes"/>
      <point x="54" y="52"/>
      <point x="41" y="34"/>
      <point x="18" y="24" type="curve"/>
      <point x="17" y="23"/>
      <point x="9" y="19"/>
      <point x="9" y="7" type="curve" smooth="yes"/>
      <point x="9" y="0"/>
      <point x="13" y="-5"/>
    </contour>
  </outline>
</glyph>
<glyph name="M" format="1">
  <advance width="417"/>
  <unicode hex="004D"/>
  <outline>
    <contour>
      <point x="23" y="-5" type="curve" smooth="yes"/>
      <point x="51" y="-5"/>
      <point x="53" y="0"/>
      <point x="72" y="0" type="curve" smooth="yes"/>
      <point x="92" y="0"/>
      <point x="94" y="-5"/>
      <point x="124" y="-5" type="curve" smooth="yes"/>
      <point x="133" y="-5"/>
      <point x="140" y="-2"/>
      <point x="140" y="6" type="curve" smooth="yes"/>
      <point x="140" y="15"/>
      <point x="135" y="20"/>
      <point x="125" y="24" type="curve" smooth="yes"/>
      <point x="107" y="31"/>
      <point x="97" y="66"/>
      <point x="97" y="102" type="curve" smooth="yes"/>
      <point x="97" y="238"/>
      <point x="104" y="294"/>
      <point x="107" y="391" type="curve" smooth="yes"/>
      <point x="107" y="398"/>
      <point x="111" y="398"/>
      <point x="112" y="391" type="curve" smooth="yes"/>
      <point x="145" y="216"/>
      <point x="152" y="152"/>
      <point x="175" y="-4" type="curve" smooth="yes"/>
      <point x="176" y="-13"/>
      <point x="187" y="-12"/>
      <point x="189" y="-5" type="curve" smooth="yes"/>
      <point x="265" y="345" type="line" smooth="yes"/>
      <point x="268" y="358"/>
      <point x="272" y="359"/>
      <point x="272" y="345" type="curve" smooth="yes"/>
      <point x="274" y="240"/>
      <point x="277" y="202"/>
      <point x="279" y="96" type="curve" smooth="yes"/>
      <point x="280" y="49"/>
      <point x="274" y="29"/>
      <point x="257" y="24" type="curve" smooth="yes"/>
      <point x="247" y="21"/>
      <point x="242" y="15"/>
      <point x="242" y="6" type="curve" smooth="yes"/>
      <point x="242" y="-2"/>
      <point x="250" y="-5"/>
      <point x="259" y="-5" type="curve" smooth="yes"/>
      <point x="292" y="-5"/>
      <point x="298" y="0"/>
      <point x="322" y="0" type="curve" smooth="yes"/>
      <point x="349" y="0"/>
      <point x="359" y="-5"/>
      <point x="391" y="-5" type="curve" smooth="yes"/>
      <point x="401" y="-5"/>
      <point x="408" y="-2"/>
      <point x="408" y="6" type="curve" smooth="yes"/>
      <point x="408" y="15"/>
      <point x="404" y="20"/>
      <point x="394" y="24" type="curve" smooth="yes"/>
      <point x="372" y="33"/>
      <point x="362" y="54"/>
      <point x="361" y="95" type="curve" smooth="yes"/>
      <point x="357" y="246"/>
      <point x="351" y="382"/>
      <point x="351" y="568" type="curve" smooth="yes"/>
      <point x="351" y="583"/>
      <point x="355" y="596"/>
      <point x="362" y="602" type="curve" smooth="yes"/>
      <point x="370" y="609"/>
      <point x="380" y="618"/>
      <point x="387" y="625" type="curve" smooth="yes"/>
      <point x="396" y="634"/>
      <point x="399" y="637"/>
      <point x="399" y="646" type="curve" smooth="yes"/>
      <point x="399" y="655"/>
      <point x="390" y="656"/>
      <point x="387" y="656" type="curve" smooth="yes"/>
      <point x="375" y="656"/>
      <point x="345" y="648"/>
      <point x="323" y="648" type="curve" smooth="yes"/>
      <point x="302" y="648" type="line" smooth="yes"/>
      <point x="300" y="648"/>
      <point x="297" y="643"/>
      <point x="296" y="635" type="curve" smooth="yes"/>
      <point x="295" y="614"/>
      <point x="291" y="591"/>
      <point x="286" y="569" type="curve"/>
      <point x="217" y="286" type="line" smooth="yes"/>
      <point x="215" y="276"/>
      <point x="209" y="279"/>
      <point x="207" y="289" type="curve" smooth="yes"/>
      <point x="163" y="554" type="line" smooth="yes"/>
      <point x="159" y="579"/>
      <point x="155" y="607"/>
      <point x="153" y="631" type="curve" smooth="yes"/>
      <point x="152" y="641"/>
      <point x="149" y="647"/>
      <point x="145" y="647" type="curve" smooth="yes"/>
      <point x="132" y="647"/>
      <point x="44" y="655"/>
      <point x="33" y="655" type="curve" smooth="yes"/>
      <point x="23" y="655"/>
      <point x="17" y="654"/>
      <point x="17" y="644" type="curve" smooth="yes"/>
      <point x="17" y="635"/>
      <point x="21" y="627"/>
      <point x="27" y="624" type="curve" smooth="yes"/>
      <point x="40" y="618"/>
      <point x="49" y="614"/>
      <point x="60" y="594" type="curve" smooth="yes"/>
      <point x="66" y="583"/>
      <point x="66" y="572"/>
      <point x="66" y="561" type="curve" smooth="yes"/>
      <point x="66" y="551"/>
      <point x="67" y="538"/>
      <point x="67" y="528" type="curve" smooth="yes"/>
      <point x="67" y="444"/>
      <point x="60" y="282"/>
      <point x="49" y="102" type="curve" smooth="yes"/>
      <point x="46" y="55"/>
      <point x="36" y="30"/>
      <point x="21" y="24" type="curve" smooth="yes"/>
      <point x="11" y="20"/>
      <point x="7" y="15"/>
      <point x="7" y="6" type="curve" smooth="yes"/>
      <point x="7" y="-2"/>
      <point x="13" y="-5"/>
    </contour>
  </outline>
</glyph>
<glyph name="N" format="1">
  <advance width="341"/>
  <unicode hex="004E"/>
  <outline>
    <contour>
      <point x="292" y="-17" type="curve" smooth="yes"/>
      <point x="297" y="-17"/>
      <point x="303" y="-13"/>
      <point x="303" y="8" type="curve" smooth="yes"/>
      <point x="303" y="21"/>
      <point x="301" y="57"/>
      <point x="301" y="105" type="curve" smooth="yes"/>
      <point x="299" y="270"/>
      <point x="300" y="470"/>
      <point x="302" y="545" type="curve" smooth="yes"/>
      <point x="303" y="586"/>
      <point x="310" y="617"/>
      <point x="324" y="627" type="curve" smooth="yes"/>
      <point x="333" y="633"/>
      <point x="338" y="637"/>
      <point x="338" y="646" type="curve" smooth="yes"/>
      <point x="338" y="654"/>
      <point x="331" y="657"/>
      <point x="322" y="657" type="curve" smooth="yes"/>
      <point x="289" y="657"/>
      <point x="288" y="651"/>
      <point x="268" y="651" type="curve" smooth="yes"/>
      <point x="248" y="651"/>
      <point x="245" y="655"/>
      <point x="215" y="655" type="curve" smooth="yes"/>
      <point x="205" y="655"/>
      <point x="200" y="652"/>
      <point x="200" y="644" type="curve" smooth="yes"/>
      <point x="200" y="635"/>
      <point x="206" y="627"/>
      <point x="219" y="623" type="curve" smooth="yes"/>
      <point x="246" y="615"/>
      <point x="259" y="580"/>
      <point x="259" y="544" type="curve" smooth="yes"/>
      <point x="259" y="421"/>
      <point x="260" y="364"/>
      <point x="260" y="265" type="curve" smooth="yes"/>
      <point x="260" y="250"/>
      <point x="258" y="244"/>
      <point x="255" y="244" type="curve" smooth="yes"/>
      <point x="252" y="244"/>
      <point x="247" y="258"/>
      <point x="245" y="264" type="curve" smooth="yes"/>
      <point x="237" y="288"/>
      <point x="113" y="609"/>
      <point x="105" y="636" type="curve"/>
      <point x="102" y="645"/>
      <point x="100" y="653"/>
      <point x="95" y="653" type="curve" smooth="yes"/>
      <point x="63" y="653"/>
      <point x="50" y="656"/>
      <point x="16" y="658" type="curve" smooth="yes"/>
      <point x="13" y="658"/>
      <point x="4" y="656"/>
      <point x="4" y="644" type="curve" smooth="yes"/>
      <point x="4" y="632"/>
      <point x="14" y="622"/>
      <point x="17" y="620" type="curve" smooth="yes"/>
      <point x="41" y="602"/>
      <point x="56" y="570"/>
      <point x="56" y="507" type="curve" smooth="yes"/>
      <point x="56" y="342"/>
      <point x="52" y="182"/>
      <point x="49" y="107" type="curve" smooth="yes"/>
      <point x="47" y="66"/>
      <point x="40" y="35"/>
      <point x="26" y="25" type="curve" smooth="yes"/>
      <point x="17" y="19"/>
      <point x="12" y="15"/>
      <point x="12" y="6" type="curve" smooth="yes"/>
      <point x="12" y="-2"/>
      <point x="18" y="-5"/>
      <point x="27" y="-5" type="curve" smooth="yes"/>
      <point x="60" y="-5"/>
      <point x="62" y="0"/>
      <point x="82" y="0" type="curve" smooth="yes"/>
      <point x="102" y="0"/>
      <point x="104" y="-5"/>
      <point x="134" y="-5" type="curve" smooth="yes"/>
      <point x="144" y="-5"/>
      <point x="150" y="-2"/>
      <point x="150" y="6" type="curve" smooth="yes"/>
      <point x="150" y="15"/>
      <point x="144" y="23"/>
      <point x="131" y="27" type="curve" smooth="yes"/>
      <point x="104" y="36"/>
      <point x="92" y="71"/>
      <point x="92" y="107" type="curve" smooth="yes"/>
      <point x="92" y="230"/>
      <point x="95" y="279"/>
      <point x="95" y="378" type="curve" smooth="yes"/>
      <point x="95" y="386"/>
      <point x="96" y="399"/>
      <point x="100" y="399" type="curve" smooth="yes"/>
      <point x="103" y="399"/>
      <point x="107" y="395"/>
      <point x="112" y="383" type="curve" smooth="yes"/>
      <point x="124" y="354"/>
      <point x="238" y="71"/>
      <point x="247" y="46" type="curve" smooth="yes"/>
      <point x="270" y="-13"/>
      <point x="287" y="-17"/>
    </contour>
  </outline>
</glyph>
<glyph name="P" format="1">
  <advance width="275"/>
  <unicode hex="0050"/>
  <outline>
    <contour>
      <point x="23" y="-5" type="curve" smooth="yes"/>
      <point x="56" y="-5"/>
      <point x="62" y="2"/>
      <point x="92" y="2" type="curve" smooth="yes"/>
      <point x="109" y="2"/>
      <point x="120" y="-5"/>
      <point x="152" y="-5" type="curve" smooth="yes"/>
      <point x="158" y="-5"/>
      <point x="164" y="-2"/>
      <point x="164" y="6" type="curve" smooth="yes"/>
      <point x="164" y="15"/>
      <point x="159" y="20"/>
      <point x="150" y="24" type="curve" smooth="yes"/>
      <point x="129" y="33"/>
      <point x="123" y="63"/>
      <point x="123" y="111" type="curve" smooth="yes"/>
      <point x="123" y="581" type="line" smooth="yes"/>
      <point x="123" y="611"/>
      <point x="124" y="623"/>
      <point x="135" y="623" type="curve" smooth="yes"/>
      <point x="164" y="623"/>
      <point x="185" y="576"/>
      <point x="185" y="471" type="curve" smooth="yes"/>
      <point x="185" y="354"/>
      <point x="173" y="285"/>
      <point x="152" y="285" type="curve" smooth="yes"/>
      <point x="148" y="285"/>
      <point x="145" y="287"/>
      <point x="141" y="287" type="curve" smooth="yes"/>
      <point x="138" y="287"/>
      <point x="134" y="284"/>
      <point x="134" y="275" type="curve" smooth="yes"/>
      <point x="134" y="268"/>
      <point x="140" y="254"/>
      <point x="163" y="254" type="curve" smooth="yes"/>
      <point x="235" y="254"/>
      <point x="269" y="357"/>
      <point x="269" y="480" type="curve" smooth="yes"/>
      <point x="269" y="592"/>
      <point x="221" y="658"/>
      <point x="149" y="658" type="curve" smooth="yes"/>
      <point x="136" y="658"/>
      <point x="116" y="652"/>
      <point x="93" y="652" type="curve" smooth="yes"/>
      <point x="67" y="652"/>
      <point x="65" y="653"/>
      <point x="30" y="653" type="curve" smooth="yes"/>
      <point x="21" y="653"/>
      <point x="13" y="650"/>
      <point x="10" y="642" type="curve" smooth="yes"/>
      <point x="10" y="633"/>
      <point x="13" y="626"/>
      <point x="21" y="622" type="curve" smooth="yes"/>
      <point x="38" y="613"/>
      <point x="42" y="582"/>
      <point x="42" y="522" type="curve" smooth="yes"/>
      <point x="42" y="100" type="line" smooth="yes"/>
      <point x="42" y="51"/>
      <point x="34" y="33"/>
      <point x="17" y="24" type="curve" smooth="yes"/>
      <point x="10" y="20"/>
      <point x="6" y="15"/>
      <point x="6" y="6" type="curve" smooth="yes"/>
      <point x="6" y="-2"/>
      <point x="13" y="-5"/>
    </contour>
  </outline>
</glyph>
<glyph name="R" format="1">
  <advance width="335"/>
  <unicode hex="0052"/>
  <outline>
    <contour>
      <point x="292" y="-21" type="curve" smooth="yes"/>
      <point x="301" y="-21"/>
      <point x="345" y="-15"/>
      <point x="345" y="14" type="curve" smooth="yes"/>
      <point x="345" y="22"/>
      <point x="343" y="25"/>
      <point x="340" y="25" type="curve" smooth="yes"/>
      <point x="322" y="25"/>
      <point x="310" y="27"/>
      <point x="296" y="58" type="curve" smooth="yes"/>
      <point x="260" y="142"/>
      <point x="240" y="219"/>
      <point x="214" y="310" type="curve" smooth="yes"/>
      <point x="212" y="316"/>
      <point x="212" y="321"/>
      <point x="214" y="323" type="curve"/>
      <point x="235" y="351"/>
      <point x="263" y="401"/>
      <point x="263" y="490" type="curve" smooth="yes"/>
      <point x="263" y="607"/>
      <point x="213" y="654"/>
      <point x="167" y="654" type="curve" smooth="yes"/>
      <point x="145" y="654"/>
      <point x="104" y="649"/>
      <point x="87" y="649" type="curve" smooth="yes"/>
      <point x="69" y="649"/>
      <point x="50" y="650"/>
      <point x="21" y="650" type="curve" smooth="yes"/>
      <point x="16" y="650"/>
      <point x="12" y="647"/>
      <point x="12" y="639" type="curve" smooth="yes"/>
      <point x="12" y="630"/>
      <point x="15" y="621"/>
      <point x="22" y="619" type="curve" smooth="yes"/>
      <point x="39" y="614"/>
      <point x="41" y="599"/>
      <point x="41" y="523" type="curve" smooth="yes"/>
      <point x="41" y="99" type="line" smooth="yes"/>
      <point x="41" y="51"/>
      <point x="33" y="33"/>
      <point x="18" y="24" type="curve" smooth="yes"/>
      <point x="12" y="20"/>
      <point x="9" y="15"/>
      <point x="9" y="6" type="curve" smooth="yes"/>
      <point x="9" y="-2"/>
      <point x="12" y="-5"/>
      <point x="18" y="-5" type="curve" smooth="yes"/>
      <point x="45" y="-5"/>
      <point x="73" y="2"/>
      <point x="96" y="2" type="curve" smooth="yes"/>
      <point x="125" y="2"/>
      <point x="128" y="-5"/>
      <point x="151" y="-5" type="curve" smooth="yes"/>
      <point x="157" y="-5"/>
      <point x="162" y="-2"/>
      <point x="162" y="6" type="curve" smooth="yes"/>
      <point x="162" y="15"/>
      <point x="158" y="20"/>
      <point x="149" y="24" type="curve" smooth="yes"/>
      <point x="128" y="33"/>
      <point x="121" y="67"/>
      <point x="121" y="109" type="curve" smooth="yes"/>
      <point x="121" y="284" type="line" smooth="yes"/>
      <point x="121" y="296"/>
      <point x="122" y="305"/>
      <point x="125" y="304" type="curve" smooth="yes"/>
      <point x="131" y="302"/>
      <point x="139" y="297"/>
      <point x="147" y="283" type="curve" smooth="yes"/>
      <point x="152" y="274"/>
      <point x="155" y="263"/>
      <point x="159" y="245" type="curve" smooth="yes"/>
      <point x="185" y="133"/>
      <point x="194" y="102"/>
      <point x="209" y="45" type="curve" smooth="yes"/>
      <point x="224" y="-12"/>
      <point x="259" y="-21"/>
    </contour>
    <contour>
      <point x="134" y="327" type="curve" smooth="yes"/>
      <point x="126" y="327"/>
      <point x="121" y="329"/>
      <point x="121" y="362" type="curve" smooth="yes"/>
      <point x="121" y="442"/>
      <point x="121" y="497"/>
      <point x="121" y="531" type="curve" smooth="yes"/>
      <point x="122" y="600"/>
      <point x="124" y="624"/>
      <point x="135" y="624" type="curve" smooth="yes"/>
      <point x="168" y="624"/>
      <point x="173" y="555"/>
      <point x="173" y="475" type="curve" smooth="yes"/>
      <point x="173" y="398"/>
      <point x="159" y="327"/>
    </contour>
  </outline>
</glyph>
<glyph name="T" format="1">
  <advance width="306"/>
  <unicode hex="0054"/>
  <outline>
    <contour>
      <point x="87" y="-5" type="curve" smooth="yes"/>
      <point x="119" y="-5"/>
      <point x="133" y="0"/>
      <point x="162" y="0" type="curve" smooth="yes"/>
      <point x="189" y="0"/>
      <point x="200" y="-5"/>
      <point x="231" y="-5" type="curve" smooth="yes"/>
      <point x="241" y="-5"/>
      <point x="248" y="-2"/>
      <point x="248" y="6" type="curve" smooth="yes"/>
      <point x="248" y="15"/>
      <point x="244" y="20"/>
      <point x="234" y="24" type="curve" smooth="yes"/>
      <point x="212" y="33"/>
      <point x="199" y="54"/>
      <point x="199" y="102" type="curve" smooth="yes"/>
      <point x="199" y="527" type="line" smooth="yes"/>
      <point x="199" y="607"/>
      <point x="201" y="610"/>
      <point x="221" y="610" type="curve" smooth="yes"/>
      <point x="237" y="610" type="line" smooth="yes"/>
      <point x="265" y="610"/>
      <point x="275" y="592"/>
      <point x="278" y="564" type="curve" smooth="yes"/>
      <point x="281" y="536"/>
      <point x="285" y="523"/>
      <point x="291" y="523" type="curve" smooth="yes"/>
      <point x="296" y="523"/>
      <point x="305" y="535"/>
      <point x="305" y="555" type="curve" smooth="yes"/>
      <point x="305" y="567" type="line" smooth="yes"/>
      <point x="305" y="582"/>
      <point x="307" y="615"/>
      <point x="307" y="626" type="curve" smooth="yes"/>
      <point x="307" y="632"/>
      <point x="309" y="647"/>
      <point x="309" y="654" type="curve" smooth="yes"/>
      <point x="309" y="669"/>
      <point x="305" y="677"/>
      <point x="301" y="677" type="curve" smooth="yes"/>
      <point x="294" y="677"/>
      <point x="286" y="665"/>
      <point x="279" y="657" type="curve" smooth="yes"/>
      <point x="270" y="646"/>
      <point x="257" y="642"/>
      <point x="237" y="642" type="curve" smooth="yes"/>
      <point x="83" y="642" type="line" smooth="yes"/>
      <point x="71" y="642"/>
      <point x="56" y="648"/>
      <point x="52" y="662" type="curve" smooth="yes"/>
      <point x="46" y="685"/>
      <point x="41" y="694"/>
      <point x="36" y="694" type="curve" smooth="yes"/>
      <point x="34" y="694"/>
      <point x="25" y="693"/>
      <point x="24" y="671" type="curve" smooth="yes"/>
      <point x="22" y="629"/>
      <point x="16" y="604"/>
      <point x="10" y="566" type="curve" smooth="yes"/>
      <point x="9" y="560"/>
      <point x="8" y="552"/>
      <point x="8" y="546" type="curve" smooth="yes"/>
      <point x="8" y="539"/>
      <point x="14" y="533"/>
      <point x="16" y="533" type="curve" smooth="yes"/>
      <point x="24" y="533"/>
      <point x="33" y="548"/>
      <point x="39" y="571" type="curve" smooth="yes"/>
      <point x="46" y="597"/>
      <point x="61" y="610"/>
      <point x="73" y="610" type="curve" smooth="yes"/>
      <point x="94" y="610" type="line" smooth="yes"/>
      <point x="100" y="610"/>
      <point x="105" y="609"/>
      <point x="108" y="605" type="curve" smooth="yes"/>
      <point x="116" y="598"/>
      <point x="119" y="580"/>
      <point x="119" y="538" type="curve" smooth="yes"/>
      <point x="119" y="102" type="line" smooth="yes"/>
      <point x="119" y="54"/>
      <point x="107" y="33"/>
      <point x="85" y="24" type="curve" smooth="yes"/>
      <point x="75" y="20"/>
      <point x="70" y="15"/>
      <point x="70" y="6" type="curve" smooth="yes"/>
      <point x="70" y="-2"/>
      <point x="77" y="-5"/>
    </contour>
  </outline>
</glyph>
<glyph name="V" format="1">
  <advance width="301"/>
  <unicode hex="0056"/>
  <outline>
    <contour>
      <point x="135" y="-12" type="curve" smooth="yes"/>
      <point x="138" y="-12"/>
      <point x="141" y="-9"/>
      <point x="142" y="-5" type="curve" smooth="yes"/>
      <point x="148" y="20"/>
      <point x="159" y="69"/>
      <point x="161" y="79" type="curve" smooth="yes"/>
      <point x="252" y="535" type="line" smooth="yes"/>
      <point x="259" y="571"/>
      <point x="273" y="611"/>
      <point x="295" y="622" type="curve" smooth="yes"/>
      <point x="305" y="627"/>
      <point x="309" y="633"/>
      <point x="309" y="642" type="curve" smooth="yes"/>
      <point x="309" y="650"/>
      <point x="304" y="653"/>
      <point x="297" y="653" type="curve" smooth="yes"/>
      <point x="285" y="653"/>
      <point x="252" y="650"/>
      <point x="235" y="650" type="curve" smooth="yes"/>
      <point x="218" y="650"/>
      <point x="193" y="651"/>
      <point x="181" y="651" type="curve" smooth="yes"/>
      <point x="174" y="651"/>
      <point x="169" y="648"/>
      <point x="169" y="640" type="curve" smooth="yes"/>
      <point x="169" y="631"/>
      <point x="174" y="623"/>
      <point x="183" y="620" type="curve" smooth="yes"/>
      <point x="202" y="614"/>
      <point x="216" y="586"/>
      <point x="204" y="514" type="curve" smooth="yes"/>
      <point x="165" y="272" type="line" smooth="yes"/>
      <point x="164" y="263"/>
      <point x="161" y="266"/>
      <point x="160" y="271" type="curve" smooth="yes"/>
      <point x="119" y="533" type="line"/>
      <point x="117" y="542"/>
      <point x="114" y="559"/>
      <point x="114" y="582" type="curve" smooth="yes"/>
      <point x="114" y="605"/>
      <point x="126" y="618"/>
      <point x="142" y="621" type="curve" smooth="yes"/>
      <point x="152" y="623"/>
      <point x="157" y="632"/>
      <point x="157" y="641" type="curve" smooth="yes"/>
      <point x="157" y="649"/>
      <point x="151" y="652"/>
      <point x="144" y="652" type="curve" smooth="yes"/>
      <point x="135" y="652"/>
      <point x="84" y="650"/>
      <point x="66" y="650" type="curve" smooth="yes"/>
      <point x="46" y="650"/>
      <point x="26" y="653"/>
      <point x="13" y="653" type="curve" smooth="yes"/>
      <point x="5" y="653"/>
      <point x="0" y="650"/>
      <point x="0" y="642" type="curve" smooth="yes"/>
      <point x="0" y="633"/>
      <point x="4" y="627"/>
      <point x="11" y="620" type="curve" smooth="yes"/>
      <point x="23" y="610"/>
      <point x="29" y="584"/>
      <point x="35" y="547" type="curve" smooth="yes"/>
      <point x="112" y="56" type="line" smooth="yes"/>
      <point x="115" y="38"/>
      <point x="126" y="9"/>
      <point x="129" y="-5" type="curve" smooth="yes"/>
      <point x="130" y="-10"/>
      <point x="134" y="-12"/>
    </contour>
  </outline>
</glyph>
<glyph name="W" format="1">
  <advance width="499"/>
  <unicode hex="0057"/>
  <outline>
    <contour>
      <point x="174" y="-13" type="curve" smooth="yes"/>
      <point x="185" y="-13"/>
      <point x="197" y="0"/>
      <point x="200" y="18" type="curve" smooth="yes"/>
      <point x="220" y="134"/>
      <point x="237" y="178"/>
      <point x="254" y="291" type="curve" smooth="yes"/>
      <point x="256" y="304"/>
      <point x="257" y="306"/>
      <point x="258" y="297" type="curve"/>
      <point x="279" y="181"/>
      <point x="287" y="127"/>
      <point x="307" y="14" type="curve" smooth="yes"/>
      <point x="310" y="-2"/>
      <point x="331" y="-9"/>
      <point x="338" y="-9" type="curve" smooth="yes"/>
      <point x="350" y="-9"/>
      <point x="368" y="0"/>
      <point x="371" y="18" type="curve" smooth="yes"/>
      <point x="462" y="532" type="line" smooth="yes"/>
      <point x="467" y="561"/>
      <point x="477" y="608"/>
      <point x="498" y="619" type="curve" smooth="yes"/>
      <point x="509" y="625"/>
      <point x="513" y="630"/>
      <point x="513" y="639" type="curve" smooth="yes"/>
      <point x="513" y="647"/>
      <point x="508" y="650"/>
      <point x="500" y="650" type="curve" smooth="yes"/>
      <point x="486" y="650"/>
      <point x="467" y="647"/>
      <point x="449" y="647" type="curve" smooth="yes"/>
      <point x="434" y="647"/>
      <point x="424" y="648"/>
      <point x="409" y="648" type="curve" smooth="yes"/>
      <point x="402" y="648"/>
      <point x="396" y="645"/>
      <point x="396" y="637" type="curve" smooth="yes"/>
      <point x="396" y="628"/>
      <point x="405" y="621"/>
      <point x="411" y="617" type="curve" smooth="yes"/>
      <point x="421" y="611"/>
      <point x="424" y="594"/>
      <point x="424" y="574" type="curve" smooth="yes"/>
      <point x="424" y="564"/>
      <point x="425" y="548"/>
      <point x="423" y="536" type="curve" smooth="yes"/>
      <point x="404" y="384"/>
      <point x="378" y="275"/>
      <point x="364" y="188" type="curve"/>
      <point x="362" y="179"/>
      <point x="360" y="175"/>
      <point x="359" y="182" type="curve" smooth="yes"/>
      <point x="321" y="380" type="line"/>
      <point x="320" y="387"/>
      <point x="322" y="408"/>
      <point x="324" y="418" type="curve" smooth="yes"/>
      <point x="332" y="460"/>
      <point x="349" y="553"/>
      <point x="354" y="571" type="curve" smooth="yes"/>
      <point x="362" y="599"/>
      <point x="359" y="609"/>
      <point x="378" y="619" type="curve" smooth="yes"/>
      <point x="388" y="624"/>
      <point x="390" y="630"/>
      <point x="390" y="639" type="curve" smooth="yes"/>
      <point x="390" y="647"/>
      <point x="385" y="650"/>
      <point x="377" y="650" type="curve" smooth="yes"/>
      <point x="367" y="650"/>
      <point x="360" y="647"/>
      <point x="350" y="647" type="curve" smooth="yes"/>
      <point x="341" y="647"/>
      <point x="333" y="649"/>
      <point x="321" y="649" type="curve" smooth="yes"/>
      <point x="313" y="649"/>
      <point x="308" y="646"/>
      <point x="308" y="638" type="curve" smooth="yes"/>
      <point x="308" y="621"/>
      <point x="324" y="619"/>
      <point x="324" y="595" type="curve" smooth="yes"/>
      <point x="324" y="593"/>
      <point x="324" y="591"/>
      <point x="324" y="588" type="curve"/>
      <point x="322" y="571"/>
      <point x="312" y="527"/>
      <point x="308" y="491" type="curve" smooth="yes"/>
      <point x="306" y="474"/>
      <point x="305" y="475"/>
      <point x="302" y="490" type="curve" smooth="yes"/>
      <point x="298" y="509"/>
      <point x="285" y="576"/>
      <point x="285" y="588" type="curve" smooth="yes"/>
      <point x="285" y="591"/>
      <point x="284" y="593"/>
      <point x="284" y="596" type="curve" smooth="yes"/>
      <point x="284" y="619"/>
      <point x="302" y="621"/>
      <point x="302" y="638" type="curve" smooth="yes"/>
      <point x="302" y="646"/>
      <point x="296" y="649"/>
      <point x="289" y="649" type="curve" smooth="yes"/>
      <point x="275" y="649"/>
      <point x="256" y="647"/>
      <point x="236" y="647" type="curve" smooth="yes"/>
      <point x="211" y="647"/>
      <point x="194" y="650"/>
      <point x="172" y="650" type="curve" smooth="yes"/>
      <point x="165" y="650"/>
      <point x="159" y="647"/>
      <point x="159" y="639" type="curve" smooth="yes"/>
      <point x="159" y="630"/>
      <point x="164" y="624"/>
      <point x="174" y="617" type="curve" smooth="yes"/>
      <point x="189" y="607"/>
      <point x="208" y="578"/>
      <point x="215" y="536" type="curve" smooth="yes"/>
      <point x="235" y="413" type="line" smooth="yes"/>
      <point x="237" y="400"/>
      <point x="239" y="392"/>
      <point x="239" y="385" type="curve" smooth="yes"/>
      <point x="239" y="379"/>
      <point x="238" y="372"/>
      <point x="236" y="362" type="curve" smooth="yes"/>
      <point x="202" y="165" type="line"/>
      <point x="200" y="154"/>
      <point x="199" y="151"/>
      <point x="196" y="166" type="curve" smooth="yes"/>
      <point x="166" y="317"/>
      <point x="155" y="388"/>
      <point x="129" y="543" type="curve"/>
      <point x="129" y="543"/>
      <point x="125" y="565"/>
      <point x="125" y="585" type="curve" smooth="yes"/>
      <point x="125" y="600"/>
      <point x="127" y="614"/>
      <point x="134" y="618" type="curve" smooth="yes"/>
      <point x="144" y="624"/>
      <point x="148" y="629"/>
      <point x="148" y="638" type="curve" smooth="yes"/>
      <point x="148" y="646"/>
      <point x="143" y="649"/>
      <point x="136" y="649" type="curve" smooth="yes"/>
      <point x="122" y="649"/>
      <point x="98" y="647"/>
      <point x="73" y="647" type="curve" smooth="yes"/>
      <point x="50" y="647"/>
      <point x="33" y="650"/>
      <point x="13" y="650" type="curve" smooth="yes"/>
      <point x="5" y="650"/>
      <point x="0" y="647"/>
      <point x="0" y="639" type="curve" smooth="yes"/>
      <point x="0" y="630"/>
      <point x="5" y="624"/>
      <point x="15" y="617" type="curve" smooth="yes"/>
      <point x="29" y="607"/>
      <point x="39" y="585"/>
      <point x="46" y="552" type="curve"/>
      <point x="141" y="15" type="line" smooth="yes"/>
      <point x="146" y="-5"/>
      <point x="159" y="-13"/>
    </contour>
  </outline>
</glyph>
<glyph name="X" format="1">
  <advance width="353"/>
  <unicode hex="0058"/>
  <outline>
    <contour>
      <point x="9" y="-5" type="curve" smooth="yes"/>
      <point x="24" y="-5"/>
      <point x="55" y="1"/>
      <point x="75" y="1" type="curve" smooth="yes"/>
      <point x="90" y="1"/>
      <point x="118" y="-1"/>
      <point x="126" y="-1" type="curve" smooth="yes"/>
      <point x="133" y="-1"/>
      <point x="138" y="2"/>
      <point x="138" y="10" type="curve" smooth="yes"/>
      <point x="138" y="19"/>
      <point x="134" y="24"/>
      <point x="124" y="30" type="curve"/>
      <point x="112" y="36"/>
      <point x="104" y="51"/>
      <point x="104" y="70" type="curve" smooth="yes"/>
      <point x="104" y="77"/>
      <point x="105" y="85"/>
      <point x="108" y="93" type="curve" smooth="yes"/>
      <point x="161" y="247" type="line" smooth="yes"/>
      <point x="164" y="256"/>
      <point x="167" y="256"/>
      <point x="171" y="242" type="curve" smooth="yes"/>
      <point x="211" y="111" type="line"/>
      <point x="215" y="99"/>
      <point x="216" y="88"/>
      <point x="216" y="78" type="curve" smooth="yes"/>
      <point x="216" y="53"/>
      <point x="205" y="37"/>
      <point x="197" y="31" type="curve" smooth="yes"/>
      <point x="191" y="26"/>
      <point x="182" y="20"/>
      <point x="182" y="11" type="curve" smooth="yes"/>
      <point x="182" y="3"/>
      <point x="188" y="0"/>
      <point x="198" y="0" type="curve" smooth="yes"/>
      <point x="211" y="0"/>
      <point x="232" y="1"/>
      <point x="255" y="1" type="curve" smooth="yes"/>
      <point x="281" y="1"/>
      <point x="318" y="-5"/>
      <point x="334" y="-5" type="curve" smooth="yes"/>
      <point x="343" y="-5"/>
      <point x="349" y="-2"/>
      <point x="349" y="6" type="curve" smooth="yes"/>
      <point x="349" y="15"/>
      <point x="345" y="20"/>
      <point x="335" y="26" type="curve" smooth="yes"/>
      <point x="318" y="36"/>
      <point x="301" y="67"/>
      <point x="288" y="111" type="curve" smooth="yes"/>
      <point x="224" y="322" type="line" smooth="yes"/>
      <point x="221" y="337"/>
      <point x="223" y="341"/>
      <point x="230" y="362" type="curve" smooth="yes"/>
      <point x="277" y="510" type="line" smooth="yes"/>
      <point x="294" y="563"/>
      <point x="317" y="615"/>
      <point x="334" y="625" type="curve" smooth="yes"/>
      <point x="344" y="631"/>
      <point x="348" y="636"/>
      <point x="348" y="645" type="curve" smooth="yes"/>
      <point x="348" y="653"/>
      <point x="343" y="656"/>
      <point x="333" y="656" type="curve" smooth="yes"/>
      <point x="320" y="656"/>
      <point x="294" y="650"/>
      <point x="274" y="650" type="curve" smooth="yes"/>
      <point x="259" y="650"/>
      <point x="245" y="651"/>
      <point x="233" y="651" type="curve" smooth="yes"/>
      <point x="223" y="651"/>
      <point x="218" y="648"/>
      <point x="218" y="640" type="curve" smooth="yes"/>
      <point x="218" y="631"/>
      <point x="226" y="623"/>
      <point x="233" y="620" type="curve" smooth="yes"/>
      <point x="247" y="614"/>
      <point x="252" y="604"/>
      <point x="252" y="589" type="curve" smooth="yes"/>
      <point x="252" y="576"/>
      <point x="247" y="559"/>
      <point x="241" y="538" type="curve" smooth="yes"/>
      <point x="206" y="404" type="line" smooth="yes"/>
      <point x="202" y="389"/>
      <point x="200" y="386"/>
      <point x="193" y="407" type="curve" smooth="yes"/>
      <point x="150" y="528" type="line" smooth="yes"/>
      <point x="139" y="560"/>
      <point x="135" y="578"/>
      <point x="135" y="590" type="curve" smooth="yes"/>
      <point x="135" y="606"/>
      <point x="143" y="611"/>
      <point x="158" y="621" type="curve" smooth="yes"/>
      <point x="168" y="628"/>
      <point x="172" y="632"/>
      <point x="172" y="641" type="curve" smooth="yes"/>
      <point x="172" y="649"/>
      <point x="166" y="652"/>
      <point x="157" y="652" type="curve" smooth="yes"/>
      <point x="147" y="652"/>
      <point x="124" y="650"/>
      <point x="101" y="650" type="curve" smooth="yes"/>
      <point x="74" y="650"/>
      <point x="41" y="655"/>
      <point x="22" y="655" type="curve" smooth="yes"/>
      <point x="13" y="655"/>
      <point x="7" y="652"/>
      <point x="7" y="644" type="curve" smooth="yes"/>
      <point x="7" y="635"/>
      <point x="12" y="629"/>
      <point x="21" y="622" type="curve" smooth="yes"/>
      <point x="35" y="611"/>
      <point x="47" y="599"/>
      <point x="72" y="529" type="curve" smooth="yes"/>
      <point x="138" y="345" type="line" smooth="yes"/>
      <point x="148" y="318"/>
      <point x="142" y="303"/>
      <point x="136" y="284" type="curve"/>
      <point x="74" y="124" type="line" smooth="yes"/>
      <point x="54" y="72"/>
      <point x="26" y="38"/>
      <point x="11" y="28" type="curve" smooth="yes"/>
      <point x="1" y="21"/>
      <point x="-3" y="15"/>
      <point x="-3" y="6" type="curve" smooth="yes"/>
      <point x="-3" y="-2"/>
      <point x="2" y="-5"/>
    </contour>
  </outline>
</glyph>
<glyph name="Y" format="1">
  <advance width="301"/>
  <unicode hex="0059"/>
  <outline>
    <contour>
      <point x="93" y="-5" type="curve" smooth="yes"/>
      <point x="121" y="-5"/>
      <point x="134" y="0"/>
      <point x="159" y="0" type="curve" smooth="yes"/>
      <point x="184" y="0"/>
      <point x="193" y="-5"/>
      <point x="222" y="-5" type="curve" smooth="yes"/>
      <point x="230" y="-5"/>
      <point x="236" y="-2"/>
      <point x="236" y="6" type="curve" smooth="yes"/>
      <point x="236" y="15"/>
      <point x="232" y="20"/>
      <point x="224" y="24" type="curve" smooth="yes"/>
      <point x="204" y="33"/>
      <point x="193" y="63"/>
      <point x="193" y="108" type="curve" smooth="yes"/>
      <point x="193" y="260" type="line" smooth="yes"/>
      <point x="193" y="299"/>
      <point x="193" y="307"/>
      <point x="202" y="350" type="curve"/>
      <point x="222" y="425"/>
      <point x="227" y="443"/>
      <point x="251" y="526" type="curve" smooth="yes"/>
      <point x="267" y="581"/>
      <point x="274" y="608"/>
      <point x="289" y="617" type="curve" smooth="yes"/>
      <point x="302" y="625"/>
      <point x="313" y="633"/>
      <point x="313" y="642" type="curve" smooth="yes"/>
      <point x="313" y="650"/>
      <point x="306" y="653"/>
      <point x="298" y="653" type="curve" smooth="yes"/>
      <point x="286" y="653"/>
      <point x="264" y="650"/>
      <point x="243" y="650" type="curve" smooth="yes"/>
      <point x="228" y="650"/>
      <point x="217" y="651"/>
      <point x="200" y="651" type="curve" smooth="yes"/>
      <point x="192" y="651"/>
      <point x="186" y="648"/>
      <point x="186" y="640" type="curve" smooth="yes"/>
      <point x="186" y="631"/>
      <point x="194" y="622"/>
      <point x="200" y="620" type="curve" smooth="yes"/>
      <point x="209" y="617"/>
      <point x="218" y="610"/>
      <point x="218" y="585" type="curve" smooth="yes"/>
      <point x="218" y="573"/>
      <point x="216" y="556"/>
      <point x="210" y="534" type="curve" smooth="yes"/>
      <point x="199" y="495"/>
      <point x="185" y="439"/>
      <point x="179" y="414" type="curve" smooth="yes"/>
      <point x="172" y="386"/>
      <point x="171" y="376"/>
      <point x="168" y="376" type="curve" smooth="yes"/>
      <point x="165" y="376"/>
      <point x="161" y="389"/>
      <point x="156" y="414" type="curve" smooth="yes"/>
      <point x="129" y="560" type="line" smooth="yes"/>
      <point x="126" y="576"/>
      <point x="124" y="588"/>
      <point x="124" y="596" type="curve" smooth="yes"/>
      <point x="124" y="611"/>
      <point x="129" y="616"/>
      <point x="138" y="621" type="curve" smooth="yes"/>
      <point x="147" y="626"/>
      <point x="152" y="632"/>
      <point x="152" y="641" type="curve" smooth="yes"/>
      <point x="152" y="649"/>
      <point x="145" y="652"/>
      <point x="134" y="652" type="curve" smooth="yes"/>
      <point x="122" y="652"/>
      <point x="106" y="650"/>
      <point x="87" y="650" type="curve" smooth="yes"/>
      <point x="60" y="650"/>
      <point x="35" y="653"/>
      <point x="18" y="653" type="curve" smooth="yes"/>
      <point x="8" y="653"/>
      <point x="0" y="650"/>
      <point x="0" y="642" type="curve" smooth="yes"/>
      <point x="0" y="633"/>
      <point x="5" y="627"/>
      <point x="15" y="620" type="curve" smooth="yes"/>
      <point x="30" y="610"/>
      <point x="48" y="546"/>
      <point x="54" y="522" type="curve" smooth="yes"/>
      <point x="105" y="330" type="line" smooth="yes"/>
      <point x="112" y="305"/>
      <point x="113" y="283"/>
      <point x="113" y="256" type="curve" smooth="yes"/>
      <point x="113" y="108" type="line" smooth="yes"/>
      <point x="113" y="60"/>
      <point x="104" y="33"/>
      <point x="88" y="24" type="curve" smooth="yes"/>
      <point x="81" y="20"/>
      <point x="77" y="15"/>
      <point x="77" y="6" type="curve" smooth="yes"/>
      <point x="77" y="-2"/>
      <point x="84" y="-5"/>
    </contour>
  </outline>
</glyph>
<glyph name="Z" format="1">
  <advance width="254"/>
  <unicode hex="005A"/>
  <outline>
    <contour>
      <point x="231" y="-5"/>
      <point x="233" y="4"/>
      <point x="234" y="12" type="curve" smooth="yes"/>
      <point x="239" y="36"/>
      <point x="249" y="124"/>
      <point x="249" y="148" type="curve" smooth="yes"/>
      <point x="249" y="157"/>
      <point x="245" y="161"/>
      <point x="238" y="161" type="curve" smooth="yes"/>
      <point x="228" y="161"/>
      <point x="227" y="148"/>
      <point x="225" y="140" type="curve" smooth="yes"/>
      <point x="211" y="71"/>
      <point x="201" y="46"/>
      <point x="177" y="41" type="curve" smooth="yes"/>
      <point x="163" y="38"/>
      <point x="150" y="36"/>
      <point x="137" y="36" type="curve" smooth="yes"/>
      <point x="124" y="36"/>
      <point x="113" y="38"/>
      <point x="105" y="41" type="curve"/>
      <point x="103" y="42"/>
      <point x="102" y="50"/>
      <point x="102" y="58" type="curve" smooth="yes"/>
      <point x="102" y="62"/>
      <point x="103" y="67"/>
      <point x="104" y="70" type="curve" smooth="yes"/>
      <point x="147" y="262"/>
      <point x="173" y="364"/>
      <point x="221" y="550" type="curve" smooth="yes"/>
      <point x="243" y="631" type="line" smooth="yes"/>
      <point x="244" y="636"/>
      <point x="241" y="649"/>
      <point x="238" y="649" type="curve" smooth="yes"/>
      <point x="205" y="647"/>
      <point x="173" y="646"/>
      <point x="137" y="646" type="curve" smooth="yes"/>
      <point x="117" y="646"/>
      <point x="96" y="646"/>
      <point x="81" y="646" type="curve" smooth="yes"/>
      <point x="66" y="646"/>
      <point x="49" y="656"/>
      <point x="44" y="662" type="curve" smooth="yes"/>
      <point x="39" y="667"/>
      <point x="32" y="676"/>
      <point x="30" y="676" type="curve" smooth="yes"/>
      <point x="28" y="676"/>
      <point x="24" y="674"/>
      <point x="23" y="659" type="curve" smooth="yes"/>
      <point x="22" y="617"/>
      <point x="15" y="562"/>
      <point x="12" y="541" type="curve"/>
      <point x="10" y="533"/>
      <point x="9" y="522"/>
      <point x="10" y="514" type="curve" smooth="yes"/>
      <point x="11" y="508"/>
      <point x="13" y="503"/>
      <point x="16" y="503" type="curve" smooth="yes"/>
      <point x="28" y="503"/>
      <point x="33" y="523"/>
      <point x="35" y="535" type="curve" smooth="yes"/>
      <point x="42" y="584"/>
      <point x="55" y="598"/>
      <point x="65" y="604" type="curve" smooth="yes"/>
      <point x="73" y="609"/>
      <point x="92" y="611"/>
      <point x="102" y="611" type="curve" smooth="yes"/>
      <point x="117" y="611"/>
      <point x="132" y="610"/>
      <point x="141" y="609" type="curve"/>
      <point x="143" y="608"/>
      <point x="145" y="607"/>
      <point x="146" y="606" type="curve" smooth="yes"/>
      <point x="147" y="605"/>
      <point x="147" y="603"/>
      <point x="147" y="601" type="curve"/>
      <point x="102" y="406"/>
      <point x="73" y="294"/>
      <point x="25" y="105" type="curve" smooth="yes"/>
      <point x="17" y="74"/>
      <point x="5" y="21"/>
      <point x="5" y="11" type="curve"/>
      <point x="5" y="11"/>
      <point x="5" y="-3"/>
      <point x="8" y="-3" type="curve" smooth="yes"/>
      <point x="42" y="-3" type="line" smooth="yes"/>
      <point x="59" y="-3"/>
      <point x="76" y="-2"/>
      <point x="94" y="-2" type="curve" smooth="yes"/>
      <point x="133" y="-2"/>
      <point x="176" y="-5"/>
      <point x="226" y="-5" type="curve" smooth="yes"/>
    </contour>
  </outline>
</glyph>
<glyph name="bracketleft" format="1">
  <advance width="196"/>
  <unicode hex="005B"/>
  <outline>
    <contour>
      <point x="160" y="-200" type="line" smooth="yes"/>
      <point x="172" y="-200"/>
      <point x="186" y="-197"/>
      <point x="186" y="-185" type="curve" smooth="yes"/>
      <point x="186" y="-173"/>
      <point x="173" y="-168"/>
      <point x="160" y="-167" type="curve" smooth="yes"/>
      <point x="141" y="-166" type="line" smooth="yes"/>
      <point x="129" y="-165"/>
      <point x="118" y="-151"/>
      <point x="118" y="-133" type="curve" smooth="yes"/>
      <point x="118" y="647" type="line" smooth="yes"/>
      <point x="118" y="666"/>
      <point x="128" y="671"/>
      <point x="141" y="672" type="curve" smooth="yes"/>
      <point x="160" y="673" type="line" smooth="yes"/>
      <point x="175" y="674"/>
      <point x="186" y="678"/>
      <point x="186" y="688" type="curve" smooth="yes"/>
      <point x="186" y="698"/>
      <point x="177" y="701"/>
      <point x="168" y="701" type="curve" smooth="yes"/>
      <point x="93" y="702" type="line" smooth="yes"/>
      <point x="61" y="702"/>
      <point x="55" y="702"/>
      <point x="55" y="668" type="curve" smooth="yes"/>
      <point x="55" y="-175" type="line" smooth="yes"/>
      <point x="55" y="-199"/>
      <point x="63" y="-200"/>
      <point x="86" y="-200" type="curve" smooth="yes"/>
    </contour>
  </outline>
</glyph>
<glyph name="backslash" format="1">
  <advance width="202"/>
  <unicode hex="005C"/>
  <outline>
    <contour>
      <point x="173" y="-62" type="curve" smooth="yes"/>
      <point x="187" y="-62"/>
      <point x="194" y="-59"/>
      <point x="192" y="-50" type="curve" smooth="yes"/>
      <point x="65" y="639" type="line" smooth="yes"/>
      <point x="62" y="655"/>
      <point x="47" y="664"/>
      <point x="31" y="664" type="curve" smooth="yes"/>
      <point x="18" y="664"/>
      <point x="12" y="661"/>
      <point x="14" y="651" type="curve" smooth="yes"/>
      <point x="141" y="-37" type="line" smooth="yes"/>
      <point x="144" y="-52"/>
      <point x="159" y="-62"/>
    </contour>
  </outline>
</glyph>
<glyph name="asciicircum" format="1">
  <advance width="272"/>
  <unicode hex="005E"/>
  <outline>
    <contour>
      <point x="36" y="284"/>
      <point x="56" y="290"/>
      <point x="60" y="303" type="curve" smooth="yes"/>
      <point x="133" y="522" type="line"/>
      <point x="135" y="528"/>
      <point x="135" y="528"/>
      <point x="137" y="522" type="curve"/>
      <point x="216" y="302" type="line" smooth="yes"/>
      <point x="220" y="291"/>
      <point x="232" y="284"/>
      <point x="243" y="284" type="curve" smooth="yes"/>
      <point x="249" y="284"/>
      <point x="250" y="297"/>
      <point x="247" y="305" type="curve"/>
      <point x="143" y="625" type="line"/>
      <point x="130" y="625" type="line"/>
      <point x="24" y="305" type="line"/>
      <point x="23" y="302"/>
      <point x="23" y="298"/>
      <point x="23" y="295" type="curve" smooth="yes"/>
      <point x="23" y="289"/>
      <point x="26" y="284"/>
      <point x="29" y="284" type="curve" smooth="yes"/>
    </contour>
  </outline>
</glyph>
<glyph name="underscore" format="1">
  <advance width="221"/>
  <unicode hex="005F"/>
  <outline>
    <contour>
      <point x="189" y="-182" type="line" smooth="yes"/>
      <point x="205" y="-182"/>
      <point x="221" y="-157"/>
      <point x="221" y="-143" type="curve" smooth="yes"/>
      <point x="221" y="-137"/>
      <point x="213" y="-132"/>
      <point x="207" y="-132" type="curve" smooth="yes"/>
      <point x="24" y="-132" type="line" smooth="yes"/>
      <point x="6" y="-132"/>
      <point x="0" y="-161"/>
      <point x="0" y="-170" type="curve" smooth="yes"/>
      <point x="0" y="-176"/>
      <point x="7" y="-182"/>
      <point x="14" y="-182" type="curve" smooth="yes"/>
    </contour>
  </outline>
</glyph>
<glyph name="grave" format="1">
  <advance width="122"/>
  <unicode hex="0060"/>
  <outline>
    <contour>
      <point x="99" y="431" type="curve" smooth="yes"/>
      <point x="104" y="429"/>
      <point x="108" y="430"/>
      <point x="110" y="437" type="curve" smooth="yes"/>
      <point x="111" y="441"/>
      <point x="112" y="447"/>
      <point x="112" y="455" type="curve" smooth="yes"/>
      <point x="112" y="495"/>
      <point x="92" y="588"/>
      <point x="84" y="619" type="curve" smooth="yes"/>
      <point x="81" y="630"/>
      <point x="70" y="652"/>
      <point x="61" y="652" type="curve" smooth="yes"/>
      <point x="37" y="652"/>
      <point x="16" y="653"/>
      <point x="11" y="640" type="curve" smooth="yes"/>
      <point x="8" y="632"/>
      <point x="11" y="627"/>
      <point x="14" y="617" type="curve" smooth="yes"/>
      <point x="26" y="576"/>
      <point x="60" y="493"/>
      <point x="76" y="461" type="curve" smooth="yes"/>
      <point x="85" y="443"/>
      <point x="93" y="433"/>
    </contour>
  </outline>
</glyph>
<glyph name="a" format="1">
  <advance width="232"/>
  <unicode hex="0061"/>
  <outline>
    <contour>
      <point x="60" y="-14" type="curve" smooth="yes"/>
      <point x="83" y="-14"/>
      <point x="103" y="4"/>
      <point x="126" y="40" type="curve"/>
      <point x="128" y="40" type="line"/>
      <point x="139" y="4"/>
      <point x="157" y="-14"/>
      <point x="180" y="-14" type="curve" smooth="yes"/>
      <point x="191" y="-14"/>
      <point x="215" y="2"/>
      <point x="226" y="23" type="curve" smooth="yes"/>
      <point x="229" y="29"/>
      <point x="232" y="39"/>
      <point x="232" y="45" type="curve" smooth="yes"/>
      <point x="232" y="50"/>
      <point x="229" y="55"/>
      <point x="226" y="55" type="curve" smooth="yes"/>
      <point x="225" y="55"/>
      <point x="224" y="54"/>
      <point x="222" y="50" type="curve" smooth="yes"/>
      <point x="219" y="42"/>
      <point x="214" y="40"/>
      <point x="205" y="40" type="curve" smooth="yes"/>
      <point x="196" y="40"/>
      <point x="190" y="58"/>
      <point x="190" y="86" type="curve" smooth="yes"/>
      <point x="193" y="324" type="line" smooth="yes"/>
      <point x="194" y="374"/>
      <point x="172" y="414"/>
      <point x="144" y="414" type="curve" smooth="yes"/>
      <point x="119" y="414"/>
      <point x="80" y="382"/>
      <point x="53" y="342" type="curve" smooth="yes"/>
      <point x="38" y="320"/>
      <point x="30" y="294"/>
      <point x="30" y="273" type="curve" smooth="yes"/>
      <point x="30" y="268"/>
      <point x="31" y="264"/>
      <point x="35" y="264" type="curve" smooth="yes"/>
      <point x="46" y="264"/>
      <point x="75" y="281"/>
      <point x="83" y="299" type="curve" smooth="yes"/>
      <point x="85" y="304"/>
      <point x="83" y="312"/>
      <point x="83" y="317" type="curve" smooth="yes"/>
      <point x="83" y="329"/>
      <point x="83" y="340"/>
      <point x="86" y="346" type="curve" smooth="yes"/>
      <point x="90" y="356"/>
      <point x="98" y="363"/>
      <point x="105" y="363" type="curve" smooth="yes"/>
      <point x="118" y="363"/>
      <point x="126" y="335"/>
      <point x="125" y="300" type="curve" smooth="yes"/>
      <point x="124" y="237" type="line" smooth="yes"/>
      <point x="124" y="210"/>
      <point x="124" y="208"/>
      <point x="109" y="197" type="curve" smooth="yes"/>
      <point x="55" y="155" type="line" smooth="yes"/>
      <point x="30" y="136"/>
      <point x="18" y="115"/>
      <point x="18" y="73" type="curve" smooth="yes"/>
      <point x="18" y="32"/>
      <point x="40" y="-14"/>
    </contour>
    <contour>
      <point x="98" y="36" type="curve" smooth="yes"/>
      <point x="90" y="36"/>
      <point x="81" y="53"/>
      <point x="81" y="88" type="curve" smooth="yes"/>
      <point x="81" y="111"/>
      <point x="89" y="139"/>
      <point x="114" y="164" type="curve" smooth="yes"/>
      <point x="118" y="168"/>
      <point x="120" y="169"/>
      <point x="122" y="169" type="curve" smooth="yes"/>
      <point x="124" y="169"/>
      <point x="125" y="163"/>
      <point x="124" y="149" type="curve" smooth="yes"/>
      <point x="124" y="100" type="line" smooth="yes"/>
      <point x="123" y="75"/>
      <point x="122" y="66"/>
      <point x="119" y="59" type="curve" smooth="yes"/>
      <point x="114" y="45"/>
      <point x="107" y="36"/>
    </contour>
  </outline>
</glyph>
<glyph name="b" format="1">
  <advance width="276"/>
  <unicode hex="0062"/>
  <outline>
    <contour>
      <point x="153" y="-14" type="curve" smooth="yes"/>
      <point x="216" y="-14"/>
      <point x="261" y="80"/>
      <point x="261" y="217" type="curve" smooth="yes"/>
      <point x="261" y="328"/>
      <point x="222" y="414"/>
      <point x="173" y="414" type="curve" smooth="yes"/>
      <point x="152" y="414"/>
      <point x="122" y="389"/>
      <point x="102" y="355" type="curve"/>
      <point x="95" y="356"/>
      <point x="95" y="362"/>
      <point x="95" y="388" type="curve" smooth="yes"/>
      <point x="95" y="593" type="line" smooth="yes"/>
      <point x="95" y="649"/>
      <point x="98" y="691"/>
      <point x="98" y="696" type="curve" smooth="yes"/>
      <point x="98" y="702"/>
      <point x="95" y="705"/>
      <point x="93" y="705" type="curve" smooth="yes"/>
      <point x="88" y="705"/>
      <point x="81" y="702"/>
      <point x="74" y="695" type="curve" smooth="yes"/>
      <point x="63" y="684"/>
      <point x="30" y="670"/>
      <point x="8" y="664" type="curve" smooth="yes"/>
      <point x="5" y="663"/>
      <point x="3" y="661"/>
      <point x="3" y="654" type="curve" smooth="yes"/>
      <point x="3" y="646"/>
      <point x="5" y="642"/>
      <point x="8" y="639" type="curve" smooth="yes"/>
      <point x="16" y="627"/>
      <point x="25" y="604"/>
      <point x="25" y="566" type="curve" smooth="yes"/>
      <point x="25" y="81" type="line" smooth="yes"/>
      <point x="25" y="56"/>
      <point x="19" y="21"/>
      <point x="19" y="9" type="curve" smooth="yes"/>
      <point x="19" y="2"/>
      <point x="28" y="-3"/>
      <point x="32" y="-3" type="curve" smooth="yes"/>
      <point x="36" y="-3"/>
      <point x="39" y="-1"/>
      <point x="41" y="2" type="curve" smooth="yes"/>
      <point x="47" y="8"/>
      <point x="54" y="15"/>
      <point x="63" y="15" type="curve" smooth="yes"/>
      <point x="71" y="15"/>
      <point x="97" y="7"/>
      <point x="112" y="-1" type="curve" smooth="yes"/>
      <point x="125" y="-8"/>
      <point x="139" y="-14"/>
    </contour>
    <contour>
      <point x="141" y="17" type="curve" smooth="yes"/>
      <point x="117" y="17"/>
      <point x="95" y="60"/>
      <point x="95" y="126" type="curve" smooth="yes"/>
      <point x="95" y="311" type="line"/>
      <point x="105" y="337"/>
      <point x="118" y="355"/>
      <point x="135" y="355" type="curve" smooth="yes"/>
      <point x="168" y="355"/>
      <point x="182" y="260"/>
      <point x="182" y="186" type="curve" smooth="yes"/>
      <point x="182" y="90"/>
      <point x="166" y="17"/>
    </contour>
  </outline>
</glyph>
<glyph name="e" format="1">
  <advance width="217"/>
  <unicode hex="0065"/>
  <outline>
    <contour>
      <point x="117" y="-13" type="curve" smooth="yes"/>
      <point x="147" y="-13"/>
      <point x="175" y="10"/>
      <point x="192" y="49" type="curve" smooth="yes"/>
      <point x="198" y="63"/>
      <point x="202" y="77"/>
      <point x="202" y="90" type="curve" smooth="yes"/>
      <point x="202" y="96"/>
      <point x="200" y="100"/>
      <point x="197" y="100" type="curve" smooth="yes"/>
      <point x="196" y="100"/>
      <point x="195" y="99"/>
      <point x="192" y="92" type="curve" smooth="yes"/>
      <point x="179" y="63"/>
      <point x="159" y="48"/>
      <point x="138" y="48" type="curve" smooth="yes"/>
      <point x="105" y="48"/>
      <point x="79" y="125"/>
      <point x="79" y="220" type="curve" smooth="yes"/>
      <point x="79" y="249"/>
      <point x="82" y="256"/>
      <point x="89" y="256" type="curve" smooth="yes"/>
      <point x="189" y="256" type="line" smooth="yes"/>
      <point x="200" y="256"/>
      <point x="205" y="266"/>
      <point x="205" y="287" type="curve" smooth="yes"/>
      <point x="205" y="360"/>
      <point x="172" y="412"/>
      <point x="127" y="412" type="curve" smooth="yes"/>
      <point x="67" y="412"/>
      <point x="15" y="317"/>
      <point x="15" y="203" type="curve" smooth="yes"/>
      <point x="15" y="73"/>
      <point x="56" y="-13"/>
    </contour>
    <contour>
      <point x="88" y="287" type="line" smooth="yes"/>
      <point x="85" y="287"/>
      <point x="84" y="290"/>
      <point x="84" y="297" type="curve" smooth="yes"/>
      <point x="84" y="337"/>
      <point x="103" y="383"/>
      <point x="120" y="383" type="curve" smooth="yes"/>
      <point x="137" y="383"/>
      <point x="151" y="351"/>
      <point x="151" y="314" type="curve" smooth="yes"/>
      <point x="151" y="300"/>
      <point x="150" y="293"/>
      <point x="148" y="292" type="curve" smooth="yes"/>
      <point x="140" y="288"/>
      <point x="133" y="287"/>
      <point x="121" y="287" type="curve" smooth="yes"/>
    </contour>
  </outline>
</glyph>
<glyph name="f" format="1">
  <advance width="164"/>
  <unicode hex="0066"/>
  <outline>
    <contour>
      <point x="21" y="1" type="curve" smooth="yes"/>
      <point x="38" y="1"/>
      <point x="65" y="5"/>
      <point x="80" y="5" type="curve" smooth="yes"/>
      <point x="96" y="5"/>
      <point x="125" y="1"/>
      <point x="142" y="1" type="curve" smooth="yes"/>
      <point x="148" y="1"/>
      <point x="151" y="3"/>
      <point x="151" y="11" type="curve" smooth="yes"/>
      <point x="151" y="21"/>
      <point x="147" y="25"/>
      <point x="141" y="27" type="curve" smooth="yes"/>
      <point x="118" y="35"/>
      <point x="111" y="44"/>
      <point x="111" y="71" type="curve" smooth="yes"/>
      <point x="111" y="339" type="line" smooth="yes"/>
      <point x="111" y="347"/>
      <point x="112" y="352"/>
      <point x="120" y="352" type="curve" smooth="yes"/>
      <point x="154" y="352" type="line" smooth="yes"/>
      <point x="155" y="352"/>
      <point x="157" y="355"/>
      <point x="158" y="360" type="curve" smooth="yes"/>
      <point x="159" y="368"/>
      <point x="160" y="380"/>
      <point x="160" y="389" type="curve" smooth="yes"/>
      <point x="160" y="395"/>
      <point x="158" y="400"/>
      <point x="154" y="400" type="curve" smooth="yes"/>
      <point x="115" y="400" type="line" smooth="yes"/>
      <point x="112" y="400"/>
      <point x="111" y="402"/>
      <point x="111" y="409" type="curve" smooth="yes"/>
      <point x="111" y="502" type="line" smooth="yes"/>
      <point x="111" y="613"/>
      <point x="128" y="667"/>
      <point x="150" y="667" type="curve" smooth="yes"/>
      <point x="161" y="667"/>
      <point x="165" y="655"/>
      <point x="168" y="642" type="curve" smooth="yes"/>
      <point x="172" y="626"/>
      <point x="176" y="608"/>
      <point x="194" y="608" type="curve" smooth="yes"/>
      <point x="204" y="608"/>
      <point x="215" y="618"/>
      <point x="215" y="648" type="curve" smooth="yes"/>
      <point x="215" y="684"/>
      <point x="197" y="707"/>
      <point x="161" y="707" type="curve" smooth="yes"/>
      <point x="123" y="707"/>
      <point x="41" y="642"/>
      <point x="41" y="423" type="curve" smooth="yes"/>
      <point x="41" y="405" type="line"/>
      <point x="32" y="396"/>
      <point x="27" y="388"/>
      <point x="15" y="376" type="curve" smooth="yes"/>
      <point x="14" y="375"/>
      <point x="12" y="373"/>
      <point x="12" y="370" type="curve" smooth="yes"/>
      <point x="12" y="363"/>
      <point x="17" y="353"/>
      <point x="18" y="352" type="curve"/>
      <point x="28" y="350"/>
      <point x="35" y="350"/>
      <point x="41" y="350" type="curve"/>
      <point x="41" y="71" type="line" smooth="yes"/>
      <point x="41" y="44"/>
      <point x="36" y="34"/>
      <point x="22" y="27" type="curve" smooth="yes"/>
      <point x="16" y="24"/>
      <point x="12" y="21"/>
      <point x="12" y="11" type="curve" smooth="yes"/>
      <point x="12" y="3"/>
      <point x="15" y="1"/>
    </contour>
  </outline>
</glyph>
<glyph name="g" format="1">
  <advance width="255"/>
  <unicode hex="0067"/>
  <outline>
    <contour>
      <point x="124" y="-290" type="curve" smooth="yes"/>
      <point x="190" y="-290"/>
      <point x="249" y="-180"/>
      <point x="249" y="-77" type="curve" smooth="yes"/>
      <point x="249" y="-17"/>
      <point x="232" y="7"/>
      <point x="135" y="24" type="curve" smooth="yes"/>
      <point x="93" y="31"/>
      <point x="72" y="46"/>
      <point x="72" y="74" type="curve" smooth="yes"/>
      <point x="72" y="88"/>
      <point x="82" y="107"/>
      <point x="87" y="120" type="curve"/>
      <point x="67" y="131" type="line"/>
      <point x="58" y="114"/>
      <point x="48" y="91"/>
      <point x="35" y="79" type="curve" smooth="yes"/>
      <point x="22" y="66"/>
      <point x="16" y="56"/>
      <point x="16" y="44" type="curve" smooth="yes"/>
      <point x="16" y="-7"/>
      <point x="41" y="-22"/>
      <point x="114" y="-37" type="curve" smooth="yes"/>
      <point x="173" y="-49"/>
      <point x="189" y="-65"/>
      <point x="189" y="-109" type="curve" smooth="yes"/>
      <point x="189" y="-155"/>
      <point x="180" y="-197"/>
      <point x="169" y="-223" type="curve" smooth="yes"/>
      <point x="161" y="-241"/>
      <point x="149" y="-250"/>
      <point x="125" y="-250" type="curve" smooth="yes"/>
      <point x="102" y="-250"/>
      <point x="79" y="-208"/>
      <point x="79" y="-155" type="curve" smooth="yes"/>
      <point x="79" y="-102"/>
      <point x="86" y="-69"/>
      <point x="111" y="-28" type="curve"/>
      <point x="76" y="-26" type="line"/>
      <point x="55" y="-53"/>
      <point x="36" y="-79"/>
      <point x="24" y="-95" type="curve" smooth="yes"/>
      <point x="10" y="-113"/>
      <point x="5" y="-135"/>
      <point x="5" y="-170" type="curve" smooth="yes"/>
      <point x="5" y="-244"/>
      <point x="56" y="-290"/>
    </contour>
    <contour>
      <point x="119" y="141" type="curve" smooth="yes"/>
      <point x="103" y="141"/>
      <point x="89" y="200"/>
      <point x="89" y="270" type="curve" smooth="yes"/>
      <point x="89" y="331"/>
      <point x="102" y="386"/>
      <point x="117" y="386" type="curve" smooth="yes"/>
      <point x="133" y="386"/>
      <point x="147" y="333"/>
      <point x="147" y="275" type="curve" smooth="yes"/>
      <point x="147" y="199"/>
      <point x="135" y="141"/>
    </contour>
    <contour>
      <point x="111" y="106" type="curve" smooth="yes"/>
      <point x="166" y="106"/>
      <point x="211" y="193"/>
      <point x="211" y="295" type="curve" smooth="yes"/>
      <point x="211" y="313"/>
      <point x="213" y="332"/>
      <point x="214" y="341" type="curve" smooth="yes"/>
      <point x="215" y="346"/>
      <point x="222" y="349"/>
      <point x="234" y="349" type="curve" smooth="yes"/>
      <point x="249" y="349" type="line"/>
      <point x="251" y="349"/>
      <point x="253" y="351"/>
      <point x="255" y="354" type="curve" smooth="yes"/>
      <point x="260" y="360"/>
      <point x="261" y="368"/>
      <point x="261" y="373" type="curve" smooth="yes"/>
      <point x="261" y="382"/>
      <point x="258" y="388"/>
      <point x="253" y="388" type="curve" smooth="yes"/>
      <point x="247" y="388"/>
      <point x="228" y="385"/>
      <point x="218" y="385" type="curve" smooth="yes"/>
      <point x="206" y="385"/>
      <point x="197" y="386"/>
      <point x="177" y="395" type="curve" smooth="yes"/>
      <point x="160" y="403"/>
      <point x="143" y="416"/>
      <point x="118" y="416" type="curve" smooth="yes"/>
      <point x="65" y="416"/>
      <point x="17" y="351"/>
      <point x="17" y="258" type="curve" smooth="yes"/>
      <point x="17" y="176"/>
      <point x="64" y="106"/>
    </contour>
  </outline>
</glyph>
<glyph name="i" format="1">
  <advance width="148"/>
  <unicode hex="0069"/>
  <outline>
    <contour>
      <point x="19" y="-3" type="curve" smooth="yes"/>
      <point x="45" y="-3"/>
      <point x="50" y="2"/>
      <point x="73" y="2" type="curve" smooth="yes"/>
      <point x="98" y="2"/>
      <point x="103" y="-3"/>
      <point x="129" y="-3" type="curve" smooth="yes"/>
      <point x="135" y="-3"/>
      <point x="138" y="0"/>
      <point x="138" y="8" type="curve" smooth="yes"/>
      <point x="138" y="18"/>
      <point x="132" y="21"/>
      <point x="128" y="24" type="curve" smooth="yes"/>
      <point x="117" y="32"/>
      <point x="109" y="39"/>
      <point x="109" y="62" type="curve" smooth="yes"/>
      <point x="109" y="294" type="line" smooth="yes"/>
      <point x="109" y="339"/>
      <point x="113" y="413"/>
      <point x="113" y="429" type="curve" smooth="yes"/>
      <point x="113" y="432"/>
      <point x="107" y="434"/>
      <point x="105" y="434" type="curve" smooth="yes"/>
      <point x="101" y="434"/>
      <point x="95" y="431"/>
      <point x="91" y="427" type="curve" smooth="yes"/>
      <point x="76" y="410"/>
      <point x="59" y="397"/>
      <point x="26" y="377" type="curve" smooth="yes"/>
      <point x="21" y="374"/>
      <point x="19" y="372"/>
      <point x="19" y="365" type="curve" smooth="yes"/>
      <point x="19" y="357"/>
      <point x="21" y="350"/>
      <point x="24" y="349" type="curve" smooth="yes"/>
      <point x="39" y="342"/>
      <point x="39" y="315"/>
      <point x="39" y="279" type="curve" smooth="yes"/>
      <point x="39" y="62" type="line" smooth="yes"/>
      <point x="39" y="38"/>
      <point x="32" y="31"/>
      <point x="20" y="24" type="curve" smooth="yes"/>
      <point x="15" y="21"/>
      <point x="10" y="18"/>
      <point x="10" y="8" type="curve" smooth="yes"/>
      <point x="10" y="0"/>
      <point x="14" y="-3"/>
    </contour>
    <contour>
      <point x="71" y="516" type="curve" smooth="yes"/>
      <point x="100" y="516"/>
      <point x="122" y="538"/>
      <point x="122" y="566" type="curve" smooth="yes"/>
      <point x="122" y="595"/>
      <point x="100" y="617"/>
      <point x="71" y="617" type="curve" smooth="yes"/>
      <point x="43" y="617"/>
      <point x="21" y="595"/>
      <point x="21" y="566" type="curve" smooth="yes"/>
      <point x="21" y="538"/>
      <point x="43" y="516"/>
    </contour>
  </outline>
</glyph>
<glyph name="l" format="1">
  <advance width="146"/>
  <unicode hex="006C"/>
  <outline>
    <contour>
      <point x="23" y="-3" type="curve" smooth="yes"/>
      <point x="49" y="-3"/>
      <point x="53" y="2"/>
      <point x="74" y="2" type="curve" smooth="yes"/>
      <point x="95" y="2"/>
      <point x="99" y="-3"/>
      <point x="125" y="-3" type="curve" smooth="yes"/>
      <point x="129" y="-3"/>
      <point x="136" y="-2"/>
      <point x="136" y="6" type="curve" smooth="yes"/>
      <point x="136" y="16"/>
      <point x="131" y="21"/>
      <point x="127" y="24" type="curve" smooth="yes"/>
      <point x="118" y="31"/>
      <point x="109" y="35"/>
      <point x="109" y="62" type="curve" smooth="yes"/>
      <point x="109" y="562" type="line" smooth="yes"/>
      <point x="109" y="652"/>
      <point x="116" y="686"/>
      <point x="116" y="698" type="curve" smooth="yes"/>
      <point x="116" y="702"/>
      <point x="112" y="705"/>
      <point x="108" y="705" type="curve" smooth="yes"/>
      <point x="106" y="705"/>
      <point x="101" y="704"/>
      <point x="99" y="703" type="curve" smooth="yes"/>
      <point x="68" y="687"/>
      <point x="47" y="677"/>
      <point x="31" y="669" type="curve" smooth="yes"/>
      <point x="19" y="663"/>
      <point x="17" y="660"/>
      <point x="17" y="651" type="curve" smooth="yes"/>
      <point x="17" y="644"/>
      <point x="21" y="639"/>
      <point x="27" y="636" type="curve" smooth="yes"/>
      <point x="41" y="629"/>
      <point x="39" y="609"/>
      <point x="39" y="566" type="curve" smooth="yes"/>
      <point x="39" y="62" type="line" smooth="yes"/>
      <point x="39" y="35"/>
      <point x="30" y="30"/>
      <point x="21" y="24" type="curve"/>
      <point x="17" y="20"/>
      <point x="12" y="16"/>
      <point x="12" y="6" type="curve" smooth="yes"/>
      <point x="12" y="-2"/>
      <point x="19" y="-3"/>
    </contour>
  </outline>
</glyph>
<glyph name="n" format="1">
  <advance width="288"/>
  <unicode hex="006E"/>
  <outline>
    <contour>
      <point x="23" y="-3" type="curve" smooth="yes"/>
      <point x="48" y="-3"/>
      <point x="52" y="2"/>
      <point x="74" y="2" type="curve" smooth="yes"/>
      <point x="97" y="2"/>
      <point x="99" y="-3"/>
      <point x="125" y="-3" type="curve" smooth="yes"/>
      <point x="133" y="-3"/>
      <point x="138" y="0"/>
      <point x="138" y="8" type="curve" smooth="yes"/>
      <point x="138" y="16"/>
      <point x="135" y="20"/>
      <point x="128" y="24" type="curve" smooth="yes"/>
      <point x="119" y="29"/>
      <point x="109" y="35"/>
      <point x="109" y="62" type="curve" smooth="yes"/>
      <point x="109" y="303" type="line" smooth="yes"/>
      <point x="109" y="307"/>
      <point x="110" y="317"/>
      <point x="111" y="322" type="curve" smooth="yes"/>
      <point x="116" y="347"/>
      <point x="132" y="361"/>
      <point x="148" y="361" type="curve" smooth="yes"/>
      <point x="167" y="361"/>
      <point x="178" y="330"/>
      <point x="178" y="272" type="curve" smooth="yes"/>
      <point x="178" y="62" type="line" smooth="yes"/>
      <point x="178" y="35"/>
      <point x="168" y="30"/>
      <point x="159" y="24" type="curve" smooth="yes"/>
      <point x="154" y="21"/>
      <point x="149" y="16"/>
      <point x="149" y="6" type="curve" smooth="yes"/>
      <point x="149" y="-2"/>
      <point x="158" y="-3"/>
      <point x="162" y="-3" type="curve" smooth="yes"/>
      <point x="188" y="-3"/>
      <point x="192" y="2"/>
      <point x="214" y="2" type="curve" smooth="yes"/>
      <point x="235" y="2"/>
      <point x="240" y="-3"/>
      <point x="264" y="-3" type="curve" smooth="yes"/>
      <point x="269" y="-3"/>
      <point x="277" y="-2"/>
      <point x="277" y="6" type="curve" smooth="yes"/>
      <point x="277" y="16"/>
      <point x="272" y="20"/>
      <point x="267" y="24" type="curve"/>
      <point x="258" y="30"/>
      <point x="248" y="35"/>
      <point x="248" y="62" type="curve" smooth="yes"/>
      <point x="248" y="275" type="line" smooth="yes"/>
      <point x="248" y="353"/>
      <point x="224" y="414"/>
      <point x="191" y="414" type="curve" smooth="yes"/>
      <point x="160" y="414"/>
      <point x="134" y="396"/>
      <point x="111" y="359" type="curve"/>
      <point x="110" y="360"/>
      <point x="110" y="364"/>
      <point x="110" y="369" type="curve" smooth="yes"/>
      <point x="110" y="378"/>
      <point x="112" y="409"/>
      <point x="112" y="418" type="curve" smooth="yes"/>
      <point x="112" y="424"/>
      <point x="111" y="430"/>
      <point x="103" y="430" type="curve" smooth="yes"/>
      <point x="97" y="430"/>
      <point x="93" y="427"/>
      <point x="90" y="423" type="curve" smooth="yes"/>
      <point x="69" y="408"/>
      <point x="49" y="393"/>
      <point x="28" y="378" type="curve" smooth="yes"/>
      <point x="20" y="374"/>
      <point x="18" y="369"/>
      <point x="18" y="362" type="curve" smooth="yes"/>
      <point x="18" y="354"/>
      <point x="20" y="351"/>
      <point x="27" y="347" type="curve" smooth="yes"/>
      <point x="39" y="340"/>
      <point x="39" y="313"/>
      <point x="39" y="277" type="curve" smooth="yes"/>
      <point x="39" y="62" type="line" smooth="yes"/>
      <point x="39" y="35"/>
      <point x="29" y="30"/>
      <point x="20" y="24" type="curve" smooth="yes"/>
      <point x="14" y="20"/>
      <point x="10" y="18"/>
      <point x="10" y="8" type="curve" smooth="yes"/>
      <point x="10" y="0"/>
      <point x="16" y="-3"/>
    </contour>
  </outline>
</glyph>
<glyph name="o" format="1">
  <advance width="258"/>
  <unicode hex="006F"/>
  <outline>
    <contour>
      <point x="121" y="-14" type="curve" smooth="yes"/>
      <point x="202" y="-14"/>
      <point x="243" y="63"/>
      <point x="243" y="213" type="curve" smooth="yes"/>
      <point x="243" y="339"/>
      <point x="202" y="414"/>
      <point x="133" y="414" type="curve" smooth="yes"/>
      <point x="62" y="414"/>
      <point x="15" y="323"/>
      <point x="15" y="187" type="curve" smooth="yes"/>
      <point x="15" y="56"/>
      <point x="52" y="-14"/>
    </contour>
    <contour>
      <point x="131" y="16" type="curve" smooth="yes"/>
      <point x="107" y="16"/>
      <point x="97" y="74"/>
      <point x="97" y="210" type="curve" smooth="yes"/>
      <point x="97" y="320"/>
      <point x="108" y="383"/>
      <point x="127" y="383" type="curve" smooth="yes"/>
      <point x="151" y="383"/>
      <point x="161" y="327"/>
      <point x="161" y="189" type="curve" smooth="yes"/>
      <point x="161" y="69"/>
      <point x="152" y="16"/>
    </contour>
  </outline>
</glyph>
<glyph name="p" format="1">
  <advance width="302"/>
  <unicode hex="0070"/>
  <outline>
    <contour>
      <point x="19" y="-285" type="curve" smooth="yes"/>
      <point x="43" y="-285"/>
      <point x="47" y="-280"/>
      <point x="68" y="-280" type="curve" smooth="yes"/>
      <point x="91" y="-280"/>
      <point x="103" y="-285"/>
      <point x="128" y="-285" type="curve" smooth="yes"/>
      <point x="132" y="-285"/>
      <point x="141" y="-284"/>
      <point x="141" y="-276" type="curve" smooth="yes"/>
      <point x="141" y="-266"/>
      <point x="136" y="-262"/>
      <point x="131" y="-258" type="curve"/>
      <point x="122" y="-252"/>
      <point x="106" y="-247"/>
      <point x="106" y="-220" type="curve" smooth="yes"/>
      <point x="106" y="-33" type="line" smooth="yes"/>
      <point x="106" y="-27"/>
      <point x="106" y="18"/>
      <point x="107" y="18" type="curve"/>
      <point x="119" y="0"/>
      <point x="148" y="-14"/>
      <point x="163" y="-14" type="curve" smooth="yes"/>
      <point x="233" y="-14"/>
      <point x="287" y="106"/>
      <point x="287" y="225" type="curve" smooth="yes"/>
      <point x="287" y="319"/>
      <point x="253" y="414"/>
      <point x="197" y="414" type="curve" smooth="yes"/>
      <point x="160" y="414"/>
      <point x="119" y="377"/>
      <point x="107" y="348" type="curve"/>
      <point x="107" y="349"/>
      <point x="107" y="353"/>
      <point x="107" y="359" type="curve" smooth="yes"/>
      <point x="107" y="373"/>
      <point x="111" y="406"/>
      <point x="111" y="418" type="curve" smooth="yes"/>
      <point x="111" y="424"/>
      <point x="110" y="430"/>
      <point x="102" y="430" type="curve" smooth="yes"/>
      <point x="96" y="430"/>
      <point x="92" y="427"/>
      <point x="89" y="423" type="curve" smooth="yes"/>
      <point x="67" y="408"/>
      <point x="46" y="392"/>
      <point x="24" y="377" type="curve" smooth="yes"/>
      <point x="16" y="373"/>
      <point x="14" y="369"/>
      <point x="14" y="362" type="curve" smooth="yes"/>
      <point x="14" y="354"/>
      <point x="16" y="351"/>
      <point x="23" y="347" type="curve" smooth="yes"/>
      <point x="35" y="340"/>
      <point x="35" y="313"/>
      <point x="35" y="277" type="curve" smooth="yes"/>
      <point x="35" y="-220" type="line" smooth="yes"/>
      <point x="35" y="-247"/>
      <point x="25" y="-252"/>
      <point x="16" y="-258" type="curve"/>
      <point x="11" y="-262"/>
      <point x="6" y="-266"/>
      <point x="6" y="-276" type="curve" smooth="yes"/>
      <point x="6" y="-284"/>
      <point x="15" y="-285"/>
    </contour>
    <contour>
      <point x="155" y="17" type="curve" smooth="yes"/>
      <point x="134" y="17"/>
      <point x="107" y="85"/>
      <point x="107" y="166" type="curve" smooth="yes"/>
      <point x="107" y="190"/>
      <point x="108" y="259"/>
      <point x="108" y="310" type="curve" smooth="yes"/>
      <point x="108" y="322"/>
      <point x="134" y="355"/>
      <point x="153" y="355" type="curve" smooth="yes"/>
      <point x="169" y="355"/>
      <point x="207" y="335"/>
      <point x="207" y="193" type="curve" smooth="yes"/>
      <point x="207" y="59"/>
      <point x="170" y="17"/>
    </contour>
  </outline>
</glyph>
<glyph name="s" format="1">
  <advance width="202"/>
  <unicode hex="0073"/>
  <outline>
    <contour>
      <point x="90" y="-14" type="curve" smooth="yes"/>
      <point x="147" y="-14"/>
      <point x="186" y="36"/>
      <point x="186" y="108" type="curve" smooth="yes"/>
      <point x="186" y="173"/>
      <point x="164" y="195"/>
      <point x="131" y="231" type="curve" smooth="yes"/>
      <point x="89" y="276"/>
      <point x="83" y="296"/>
      <point x="83" y="327" type="curve" smooth="yes"/>
      <point x="83" y="365"/>
      <point x="96" y="386"/>
      <point x="112" y="386" type="curve" smooth="yes"/>
      <point x="129" y="386"/>
      <point x="141" y="363"/>
      <point x="149" y="318" type="curve" smooth="yes"/>
      <point x="151" y="308"/>
      <point x="162" y="309"/>
      <point x="166" y="309" type="curve" smooth="yes"/>
      <point x="168" y="309"/>
      <point x="176" y="311"/>
      <point x="176" y="316" type="curve" smooth="yes"/>
      <point x="176" y="344"/>
      <point x="166" y="380"/>
      <point x="162" y="395" type="curve"/>
      <point x="153" y="404"/>
      <point x="137" y="414"/>
      <point x="114" y="414" type="curve" smooth="yes"/>
      <point x="58" y="414"/>
      <point x="31" y="363"/>
      <point x="31" y="299" type="curve" smooth="yes"/>
      <point x="31" y="249"/>
      <point x="42" y="214"/>
      <point x="78" y="175" type="curve" smooth="yes"/>
      <point x="110" y="140"/>
      <point x="123" y="119"/>
      <point x="123" y="83" type="curve" smooth="yes"/>
      <point x="123" y="44"/>
      <point x="104" y="13"/>
      <point x="86" y="13" type="curve" smooth="yes"/>
      <point x="68" y="13"/>
      <point x="48" y="38"/>
      <point x="41" y="104" type="curve"/>
      <point x="39" y="109"/>
      <point x="36" y="111"/>
      <point x="27" y="111" type="curve" smooth="yes"/>
      <point x="17" y="111"/>
      <point x="14" y="108"/>
      <point x="14" y="102" type="curve"/>
      <point x="14" y="79"/>
      <point x="15" y="36"/>
      <point x="20" y="22" type="curve"/>
      <point x="37" y="-1"/>
      <point x="63" y="-14"/>
    </contour>
  </outline>
</glyph>
<glyph name="w" format="1">
  <advance width="374"/>
  <unicode hex="0077"/>
  <outline>
    <contour>
      <point x="130" y="-23"/>
      <point x="131" y="-20"/>
      <point x="136" y="-16" type="curve"/>
      <point x="186" y="227" type="line" smooth="yes"/>
      <point x="187" y="234"/>
      <point x="188" y="237"/>
      <point x="189" y="237" type="curve" smooth="yes"/>
      <point x="190" y="237"/>
      <point x="190" y="233"/>
      <point x="191" y="228" type="curve" smooth="yes"/>
      <point x="235" y="-16" type="line"/>
      <point x="240" y="-20"/>
      <point x="246" y="-23"/>
      <point x="251" y="-23" type="curve" smooth="yes"/>
      <point x="263" y="-23"/>
      <point x="269" y="-20"/>
      <point x="274" y="-16" type="curve"/>
      <point x="345" y="312" type="line" smooth="yes"/>
      <point x="352" y="342"/>
      <point x="360" y="372"/>
      <point x="369" y="378" type="curve"/>
      <point x="373" y="382"/>
      <point x="379" y="386"/>
      <point x="379" y="396" type="curve" smooth="yes"/>
      <point x="379" y="404"/>
      <point x="373" y="405"/>
      <point x="370" y="405" type="curve" smooth="yes"/>
      <point x="360" y="405"/>
      <point x="348" y="400"/>
      <point x="332" y="400" type="curve" smooth="yes"/>
      <point x="316" y="400"/>
      <point x="309" y="405"/>
      <point x="297" y="405" type="curve" smooth="yes"/>
      <point x="294" y="405"/>
      <point x="288" y="404"/>
      <point x="288" y="396" type="curve" smooth="yes"/>
      <point x="288" y="386"/>
      <point x="293" y="382"/>
      <point x="298" y="378" type="curve" smooth="yes"/>
      <point x="305" y="373"/>
      <point x="310" y="358"/>
      <point x="310" y="334" type="curve" smooth="yes"/>
      <point x="310" y="325"/>
      <point x="309" y="306"/>
      <point x="307" y="295" type="curve" smooth="yes"/>
      <point x="278" y="129" type="line" smooth="yes"/>
      <point x="277" y="122"/>
      <point x="276" y="119"/>
      <point x="274" y="119" type="curve" smooth="yes"/>
      <point x="273" y="119"/>
      <point x="272" y="123"/>
      <point x="271" y="130" type="curve" smooth="yes"/>
      <point x="239" y="312" type="line" smooth="yes"/>
      <point x="237" y="324"/>
      <point x="236" y="334"/>
      <point x="236" y="342" type="curve" smooth="yes"/>
      <point x="236" y="366"/>
      <point x="244" y="373"/>
      <point x="251" y="378" type="curve" smooth="yes"/>
      <point x="256" y="382"/>
      <point x="261" y="386"/>
      <point x="261" y="396" type="curve" smooth="yes"/>
      <point x="261" y="404"/>
      <point x="255" y="405"/>
      <point x="252" y="405" type="curve" smooth="yes"/>
      <point x="238" y="405"/>
      <point x="224" y="400"/>
      <point x="201" y="400" type="curve" smooth="yes"/>
      <point x="179" y="400"/>
      <point x="166" y="405"/>
      <point x="155" y="405" type="curve" smooth="yes"/>
      <point x="151" y="405"/>
      <point x="144" y="404"/>
      <point x="144" y="396" type="curve" smooth="yes"/>
      <point x="144" y="386"/>
      <point x="149" y="382"/>
      <point x="154" y="378" type="curve" smooth="yes"/>
      <point x="165" y="368"/>
      <point x="170" y="354"/>
      <point x="170" y="340" type="curve" smooth="yes"/>
      <point x="171" y="322"/>
      <point x="167" y="303"/>
      <point x="164" y="283" type="curve" smooth="yes"/>
      <point x="139" y="135" type="line" smooth="yes"/>
      <point x="139" y="132"/>
      <point x="137" y="131"/>
      <point x="137" y="131" type="curve" smooth="yes"/>
      <point x="136" y="131"/>
      <point x="135" y="132"/>
      <point x="134" y="135" type="curve" smooth="yes"/>
      <point x="104" y="312" type="line" smooth="yes"/>
      <point x="103" y="320"/>
      <point x="102" y="329"/>
      <point x="102" y="338" type="curve" smooth="yes"/>
      <point x="102" y="357"/>
      <point x="105" y="374"/>
      <point x="111" y="378" type="curve"/>
      <point x="116" y="382"/>
      <point x="121" y="386"/>
      <point x="121" y="396" type="curve" smooth="yes"/>
      <point x="121" y="404"/>
      <point x="113" y="405"/>
      <point x="109" y="405" type="curve" smooth="yes"/>
      <point x="92" y="405"/>
      <point x="76" y="400"/>
      <point x="60" y="400" type="curve" smooth="yes"/>
      <point x="45" y="400"/>
      <point x="31" y="405"/>
      <point x="16" y="405" type="curve" smooth="yes"/>
      <point x="12" y="405"/>
      <point x="5" y="404"/>
      <point x="5" y="396" type="curve" smooth="yes"/>
      <point x="5" y="386"/>
      <point x="11" y="382"/>
      <point x="15" y="378" type="curve"/>
      <point x="24" y="372"/>
      <point x="33" y="355"/>
      <point x="38" y="329" type="curve" smooth="yes"/>
      <point x="99" y="-16" type="line"/>
      <point x="105" y="-20"/>
      <point x="114" y="-23"/>
      <point x="119" y="-23" type="curve" smooth="yes"/>
    </contour>
  </outline>
</glyph>
<glyph name="x" format="1">
  <advance width="242"/>
  <unicode hex="0078"/>
  <outline>
    <contour>
      <point x="14" y="-4" type="curve" smooth="yes"/>
      <point x="21" y="-4"/>
      <point x="40" y="1"/>
      <point x="57" y="1" type="curve" smooth="yes"/>
      <point x="64" y="1"/>
      <point x="74" y="-2"/>
      <point x="79" y="-2" type="curve" smooth="yes"/>
      <point x="81" y="-2"/>
      <point x="89" y="-3"/>
      <point x="89" y="7" type="curve" smooth="yes"/>
      <point x="89" y="17"/>
      <point x="83" y="21"/>
      <point x="79" y="25" type="curve"/>
      <point x="74" y="28"/>
      <point x="73" y="34"/>
      <point x="73" y="41" type="curve" smooth="yes"/>
      <point x="73" y="48"/>
      <point x="74" y="56"/>
      <point x="76" y="63" type="curve"/>
      <point x="103" y="168" type="line" smooth="yes"/>
      <point x="104" y="172"/>
      <point x="106" y="173"/>
      <point x="107" y="168" type="curve"/>
      <point x="134" y="70" type="line" smooth="yes"/>
      <point x="136" y="63"/>
      <point x="137" y="57"/>
      <point x="137" y="52" type="curve" smooth="yes"/>
      <point x="137" y="38"/>
      <point x="131" y="32"/>
      <point x="125" y="28" type="curve" smooth="yes"/>
      <point x="118" y="24"/>
      <point x="114" y="20"/>
      <point x="114" y="8" type="curve" smooth="yes"/>
      <point x="114" y="3"/>
      <point x="116" y="-2"/>
      <point x="124" y="-2" type="curve" smooth="yes"/>
      <point x="134" y="-2"/>
      <point x="173" y="0"/>
      <point x="184" y="0" type="curve" smooth="yes"/>
      <point x="206" y="0"/>
      <point x="213" y="-4"/>
      <point x="231" y="-4" type="curve" smooth="yes"/>
      <point x="234" y="-4"/>
      <point x="240" y="-3"/>
      <point x="240" y="5" type="curve" smooth="yes"/>
      <point x="240" y="16"/>
      <point x="234" y="20"/>
      <point x="229" y="23" type="curve" smooth="yes"/>
      <point x="220" y="28"/>
      <point x="215" y="39"/>
      <point x="208" y="65" type="curve" smooth="yes"/>
      <point x="168" y="207" type="line" smooth="yes"/>
      <point x="167" y="212"/>
      <point x="167" y="217"/>
      <point x="168" y="220" type="curve" smooth="yes"/>
      <point x="198" y="331" type="line" smooth="yes"/>
      <point x="205" y="358"/>
      <point x="220" y="372"/>
      <point x="229" y="378" type="curve"/>
      <point x="234" y="382"/>
      <point x="239" y="386"/>
      <point x="239" y="396" type="curve" smooth="yes"/>
      <point x="239" y="404"/>
      <point x="234" y="405"/>
      <point x="230" y="405" type="curve" smooth="yes"/>
      <point x="223" y="405"/>
      <point x="204" y="400"/>
      <point x="187" y="400" type="curve" smooth="yes"/>
      <point x="180" y="400"/>
      <point x="170" y="403"/>
      <point x="165" y="403" type="curve" smooth="yes"/>
      <point x="163" y="403"/>
      <point x="155" y="404"/>
      <point x="155" y="394" type="curve" smooth="yes"/>
      <point x="155" y="384"/>
      <point x="161" y="380"/>
      <point x="165" y="376" type="curve"/>
      <point x="170" y="373"/>
      <point x="171" y="367"/>
      <point x="171" y="360" type="curve" smooth="yes"/>
      <point x="171" y="353"/>
      <point x="170" y="345"/>
      <point x="168" y="338" type="curve"/>
      <point x="148" y="254" type="line" smooth="yes"/>
      <point x="147" y="250"/>
      <point x="145" y="249"/>
      <point x="144" y="254" type="curve" smooth="yes"/>
      <point x="121" y="330" type="line"/>
      <point x="118" y="343"/>
      <point x="115" y="355"/>
      <point x="115" y="362" type="curve" smooth="yes"/>
      <point x="115" y="373"/>
      <point x="120" y="376"/>
      <point x="125" y="379" type="curve" smooth="yes"/>
      <point x="129" y="382"/>
      <point x="133" y="385"/>
      <point x="133" y="393" type="curve" smooth="yes"/>
      <point x="133" y="403"/>
      <point x="125" y="402"/>
      <point x="122" y="402" type="curve" smooth="yes"/>
      <point x="112" y="402"/>
      <point x="87" y="400"/>
      <point x="76" y="400" type="curve" smooth="yes"/>
      <point x="55" y="400"/>
      <point x="45" y="404"/>
      <point x="27" y="404" type="curve" smooth="yes"/>
      <point x="25" y="404"/>
      <point x="17" y="405"/>
      <point x="17" y="395" type="curve" smooth="yes"/>
      <point x="17" y="384"/>
      <point x="23" y="380"/>
      <point x="27" y="377" type="curve" smooth="yes"/>
      <point x="36" y="371"/>
      <point x="41" y="361"/>
      <point x="48" y="335" type="curve" smooth="yes"/>
      <point x="83" y="215" type="line"/>
      <point x="84" y="210"/>
      <point x="84" y="205"/>
      <point x="83" y="202" type="curve" smooth="yes"/>
      <point x="46" y="70" type="line" smooth="yes"/>
      <point x="38" y="43"/>
      <point x="24" y="29"/>
      <point x="15" y="23" type="curve"/>
      <point x="10" y="19"/>
      <point x="5" y="15"/>
      <point x="5" y="5" type="curve" smooth="yes"/>
      <point x="5" y="-3"/>
      <point x="10" y="-4"/>
    </contour>
  </outline>
</glyph>
<glyph name="y" format="1">
  <advance width="241"/>
  <unicode hex="0079"/>
  <outline>
    <contour>
      <point x="61" y="-285" type="curve" smooth="yes"/>
      <point x="84" y="-285"/>
      <point x="94" y="-271"/>
      <point x="99" y="-244" type="curve"/>
      <point x="209" y="311" type="line"/>
      <point x="215" y="344"/>
      <point x="227" y="372"/>
      <point x="236" y="378" type="curve" smooth="yes"/>
      <point x="243" y="383"/>
      <point x="246" y="387"/>
      <point x="246" y="396" type="curve" smooth="yes"/>
      <point x="246" y="404"/>
      <point x="241" y="405"/>
      <point x="234" y="405" type="curve" smooth="yes"/>
      <point x="225" y="405"/>
      <point x="222" y="400"/>
      <point x="201" y="400" type="curve" smooth="yes"/>
      <point x="184" y="400"/>
      <point x="171" y="405"/>
      <point x="162" y="405" type="curve" smooth="yes"/>
      <point x="158" y="405"/>
      <point x="152" y="404"/>
      <point x="152" y="396" type="curve" smooth="yes"/>
      <point x="152" y="387"/>
      <point x="154" y="384"/>
      <point x="162" y="378" type="curve" smooth="yes"/>
      <point x="171" y="372"/>
      <point x="173" y="362"/>
      <point x="173" y="336" type="curve" smooth="yes"/>
      <point x="173" y="325"/>
      <point x="172" y="308"/>
      <point x="170" y="295" type="curve" smooth="yes"/>
      <point x="140" y="120" type="line"/>
      <point x="140" y="118"/>
      <point x="139" y="117"/>
      <point x="138" y="117" type="curve" smooth="yes"/>
      <point x="138" y="117"/>
      <point x="137" y="118"/>
      <point x="137" y="120" type="curve"/>
      <point x="105" y="310" type="line" smooth="yes"/>
      <point x="104" y="318"/>
      <point x="104" y="328"/>
      <point x="104" y="337" type="curve" smooth="yes"/>
      <point x="104" y="356"/>
      <point x="106" y="373"/>
      <point x="112" y="378" type="curve" smooth="yes"/>
      <point x="118" y="382"/>
      <point x="122" y="386"/>
      <point x="122" y="396" type="curve" smooth="yes"/>
      <point x="122" y="404"/>
      <point x="115" y="405"/>
      <point x="110" y="405" type="curve" smooth="yes"/>
      <point x="86" y="405"/>
      <point x="84" y="400"/>
      <point x="63" y="400" type="curve" smooth="yes"/>
      <point x="40" y="400"/>
      <point x="42" y="405"/>
      <point x="17" y="405" type="curve" smooth="yes"/>
      <point x="13" y="405"/>
      <point x="5" y="404"/>
      <point x="5" y="396" type="curve" smooth="yes"/>
      <point x="5" y="387"/>
      <point x="8" y="384"/>
      <point x="13" y="380" type="curve" smooth="yes"/>
      <point x="21" y="373"/>
      <point x="31" y="353"/>
      <point x="35" y="329" type="curve"/>
      <point x="99" y="-5" type="line"/>
      <point x="102" y="-25"/>
      <point x="102" y="-35"/>
      <point x="102" y="-46" type="curve" smooth="yes"/>
      <point x="102" y="-55"/>
      <point x="103" y="-66"/>
      <point x="100" y="-84" type="curve" smooth="yes"/>
      <point x="80" y="-188" type="line" smooth="yes"/>
      <point x="77" y="-202"/>
      <point x="74" y="-205"/>
      <point x="70" y="-205" type="curve" smooth="yes"/>
      <point x="66" y="-205"/>
      <point x="60" y="-199"/>
      <point x="50" y="-199" type="curve" smooth="yes"/>
      <point x="42" y="-199"/>
      <point x="28" y="-216"/>
      <point x="28" y="-244" type="curve" smooth="yes"/>
      <point x="28" y="-274"/>
      <point x="42" y="-285"/>
    </contour>
  </outline>
</glyph>
<glyph name="z" format="1">
  <advance width="190"/>
  <unicode hex="007A"/>
  <outline>
    <contour>
      <point x="15" y="-5" type="curve" smooth="yes"/>
      <point x="23" y="-5"/>
      <point x="38" y="0"/>
      <point x="50" y="0" type="curve" smooth="yes"/>
      <point x="98" y="0"/>
      <point x="148" y="-5"/>
      <point x="161" y="-5" type="curve" smooth="yes"/>
      <point x="164" y="-5"/>
      <point x="167" y="0"/>
      <point x="168" y="9" type="curve" smooth="yes"/>
      <point x="170" y="25"/>
      <point x="181" y="114"/>
      <point x="181" y="122" type="curve" smooth="yes"/>
      <point x="181" y="139"/>
      <point x="163" y="140"/>
      <point x="159" y="129" type="curve" smooth="yes"/>
      <point x="151" y="100"/>
      <point x="139" y="72"/>
      <point x="133" y="56" type="curve" smooth="yes"/>
      <point x="127" y="41"/>
      <point x="120" y="33"/>
      <point x="114" y="33" type="curve" smooth="yes"/>
      <point x="88" y="33" type="line" smooth="yes"/>
      <point x="84" y="33"/>
      <point x="82" y="38"/>
      <point x="84" y="48" type="curve" smooth="yes"/>
      <point x="158" y="343" type="line" smooth="yes"/>
      <point x="163" y="363"/>
      <point x="169" y="376"/>
      <point x="175" y="393" type="curve"/>
      <point x="176" y="397"/>
      <point x="174" y="405"/>
      <point x="172" y="405" type="curve" smooth="yes"/>
      <point x="145" y="405"/>
      <point x="121" y="402"/>
      <point x="93" y="402" type="curve" smooth="yes"/>
      <point x="89" y="402"/>
      <point x="71" y="401"/>
      <point x="65" y="401" type="curve" smooth="yes"/>
      <point x="57" y="401"/>
      <point x="48" y="402"/>
      <point x="46" y="407" type="curve" smooth="yes"/>
      <point x="43" y="412"/>
      <point x="34" y="416"/>
      <point x="32" y="416" type="curve" smooth="yes"/>
      <point x="31" y="416"/>
      <point x="26" y="408"/>
      <point x="26" y="398" type="curve" smooth="yes"/>
      <point x="26" y="373"/>
      <point x="16" y="322"/>
      <point x="13" y="304" type="curve" smooth="yes"/>
      <point x="11" y="292"/>
      <point x="32" y="285"/>
      <point x="36" y="294" type="curve" smooth="yes"/>
      <point x="42" y="312"/>
      <point x="54" y="340"/>
      <point x="63" y="352" type="curve" smooth="yes"/>
      <point x="69" y="360"/>
      <point x="75" y="371"/>
      <point x="84" y="371" type="curve" smooth="yes"/>
      <point x="97" y="371" type="line" smooth="yes"/>
      <point x="104" y="371"/>
      <point x="102" y="365"/>
      <point x="101" y="361" type="curve"/>
      <point x="76" y="264"/>
      <point x="50" y="167"/>
      <point x="25" y="70" type="curve"/>
      <point x="19" y="51"/>
      <point x="9" y="17"/>
      <point x="9" y="12" type="curve" smooth="yes"/>
      <point x="9" y="7"/>
      <point x="13" y="-5"/>
    </contour>
  </outline>
</glyph>
<glyph name="asciitilde" format="1">
  <advance width="225"/>
  <unicode hex="007E"/>
  <outline>
    <contour>
      <point x="148" y="260" type="curve" smooth="yes"/>
      <point x="175" y="260"/>
      <point x="218" y="318"/>
      <point x="218" y="352" type="curve" smooth="yes"/>
      <point x="218" y="372"/>
      <point x="212" y="382"/>
      <point x="192" y="382" type="curve" smooth="yes"/>
      <point x="189" y="382"/>
      <point x="175" y="319"/>
      <point x="155" y="319" type="curve" smooth="yes"/>
      <point x="150" y="319"/>
      <point x="142" y="332"/>
      <point x="130" y="346" type="curve" smooth="yes"/>
      <point x="117" y="363"/>
      <point x="100" y="381"/>
      <point x="78" y="381" type="curve" smooth="yes"/>
      <point x="37" y="381"/>
      <point x="9" y="306"/>
      <point x="9" y="287" type="curve" smooth="yes"/>
      <point x="9" y="272"/>
      <point x="15" y="265"/>
      <point x="33" y="265" type="curve" smooth="yes"/>
      <point x="36" y="265"/>
      <point x="50" y="320"/>
      <point x="72" y="320" type="curve" smooth="yes"/>
      <point x="80" y="320"/>
      <point x="89" y="308"/>
      <point x="100" y="295" type="curve" smooth="yes"/>
      <point x="114" y="278"/>
      <point x="130" y="260"/>
    </contour>
  </outline>
</glyph>
